<svg width="12" height="18" viewBox="0 0 12 18" fill="none" xmlns="http://www.w3.org/2000/svg">
<path d="M2.66675 14.8334V13.1667H4.33342V14.8334H2.66675Z" fill="black"/>
<path d="M5.16675 13.1667V14.8334H6.83342V13.1667H5.16675Z" fill="black"/>
<path d="M7.66675 14.8334V13.1667H9.33342V14.8334H7.66675Z" fill="black"/>
<path d="M2.66675 10.6667V12.3334H4.33342V10.6667H2.66675Z" fill="black"/>
<path d="M5.16675 12.3334V10.6667H6.83342V12.3334H5.16675Z" fill="black"/>
<path d="M7.66675 10.6667V12.3334H9.33342V10.6667H7.66675Z" fill="black"/>
<path fill-rule="evenodd" clip-rule="evenodd" d="M9.33342 3.16675V9.83342H2.66675V3.16675H9.33342ZM4.33342 8.16675V4.83341H7.66675V8.16675H4.33342Z" fill="black"/>
<path fill-rule="evenodd" clip-rule="evenodd" d="M11.8334 2.38243C11.8334 1.4452 11.0982 0.666748 10.1667 0.666748H1.83341C0.901953 0.666748 0.166748 1.4452 0.166748 2.38243V15.6177C0.166748 16.555 0.901953 17.3334 1.83341 17.3334H10.1667C11.0982 17.3334 11.8334 16.555 11.8334 15.6177V2.38243ZM10.1667 2.38243V15.6177C10.1667 15.6344 10.1646 15.6459 10.1631 15.6536C10.1613 15.6632 10.1606 15.6667 10.1667 15.6667H1.83341C1.83952 15.6667 1.83884 15.6632 1.83703 15.6536C1.83559 15.6459 1.83341 15.6344 1.83341 15.6177V2.38243C1.83341 2.36581 1.83559 2.35428 1.83703 2.3466C1.83884 2.337 1.83952 2.33341 1.83341 2.33341H10.1667C10.1606 2.33341 10.1613 2.337 10.1631 2.3466C10.1646 2.35428 10.1667 2.36581 10.1667 2.38243Z" fill="black"/>
</svg>
