<svg width="64" height="64" viewBox="0 0 64 64" fill="none" xmlns="http://www.w3.org/2000/svg">
<path d="M7.05654 5.819C0.919143 11.1895 -0.188999 25.5323 0.0241046 32.0324C-0.189003 39.5981 0.983067 54.4097 8.0155 58.8852C15.0479 63.3606 26.449 63.8934 32.3094 64C38.7025 64 46.0546 64 55.6443 59.2049C62.3571 54.4097 63.6357 45.1391 63.9553 32.0324C64.275 18.9257 62.9964 9.9748 56.2836 4.85999C50.9443 0.791695 37.9566 -0.148276 32.3094 0.064834C26.449 -0.254842 13.1939 0.448445 7.05654 5.819Z" fill="white"/>
<path fill-rule="evenodd" clip-rule="evenodd" d="M29.3334 20H34.6667C36.1394 20 37.3334 21.1939 37.3334 22.6667V24H42.6667C44.1394 24 45.3334 25.1939 45.3334 26.6667V41.3333C45.3334 42.8061 44.1394 44 42.6667 44H21.3334C19.8606 44 18.6667 42.8061 18.6667 41.3333V26.6667C18.6667 25.1939 19.8606 24 21.3334 24H26.6667V22.6667C26.6667 21.1939 27.8606 20 29.3334 20ZM21.3334 26.6667H26.6667H37.3334H42.6667V33.3333H33.3334H30.6667H21.3334V26.6667ZM21.3334 41.3333V36H30.6667V37.3333H33.3334V36H42.6667V41.3333H21.3334ZM34.6667 22.6667V24H29.3334V22.6667H34.6667Z" fill="#03A65A"/>
</svg>
