<svg width="64" height="64" viewBox="0 0 64 64" fill="none" xmlns="http://www.w3.org/2000/svg">
<path d="M7.05654 5.819C0.919143 11.1895 -0.188999 25.5323 0.0241046 32.0324C-0.189003 39.5981 0.983067 54.4097 8.0155 58.8852C15.0479 63.3606 26.449 63.8934 32.3094 64C38.7025 64 46.0546 64 55.6443 59.2049C62.3571 54.4097 63.6357 45.1391 63.9553 32.0324C64.275 18.9257 62.9964 9.9748 56.2836 4.85999C50.9443 0.791695 37.9566 -0.148276 32.3094 0.064834C26.449 -0.254842 13.1939 0.448445 7.05654 5.819Z" fill="white"/>
<path fill-rule="evenodd" clip-rule="evenodd" d="M30.6667 17.3335H33.3333V20.0734C38.8955 20.6883 43.3119 25.1047 43.9268 30.6668H46.6667V33.3335H43.9268C43.3119 38.8957 38.8955 43.3121 33.3333 43.9269V46.6668H30.6667V43.9269C25.1045 43.3121 20.6881 38.8957 20.0732 33.3335H17.3333V30.6668H20.0732C20.6881 25.1047 25.1045 20.6883 30.6667 20.0734V17.3335ZM22.7612 33.3335H25.3333V30.6668H22.7612C23.3459 26.5792 26.5791 23.346 30.6667 22.7613V25.3335H33.3333V22.7613C37.4209 23.346 40.6541 26.5792 41.2388 30.6668H38.6667V33.3335H41.2388C40.6541 37.4211 37.4209 40.6543 33.3333 41.239V38.6668H30.6667V41.239C26.5791 40.6543 23.3459 37.4211 22.7612 33.3335ZM29.3333 32.0002C29.3333 33.4729 30.5272 34.6668 32 34.6668C33.4728 34.6668 34.6667 33.4729 34.6667 32.0002C34.6667 30.5274 33.4728 29.3335 32 29.3335C30.5272 29.3335 29.3333 30.5274 29.3333 32.0002Z" fill="#03A65A"/>
</svg>
