<svg width="94" height="94" viewBox="0 0 94 94" fill="none" xmlns="http://www.w3.org/2000/svg">
<g filter="url(#filter0_dd)">
<path d="M22.0565 20.819C15.9191 26.1895 14.811 40.5323 15.0241 47.0324C14.811 54.5981 15.9831 69.4097 23.0155 73.8852C30.0479 78.3606 41.449 78.8934 47.3094 79C53.7025 79 61.0546 79 70.6443 74.2049C77.3571 69.4097 78.6357 60.1391 78.9553 47.0324C79.275 33.9257 77.9964 24.9748 71.2836 19.86C65.9443 15.7917 52.9566 14.8517 47.3094 15.0648C41.449 14.7452 28.1939 15.4484 22.0565 20.819Z" fill="white"/>
</g>
<path fill-rule="evenodd" clip-rule="evenodd" d="M45.6667 32.3335H48.3333V35.0734C53.8955 35.6883 58.3119 40.1047 58.9268 45.6668H61.6667V48.3335H58.9268C58.3119 53.8957 53.8955 58.3121 48.3333 58.9269V61.6668H45.6667V58.9269C40.1045 58.3121 35.6881 53.8957 35.0732 48.3335H32.3333V45.6668H35.0732C35.6881 40.1047 40.1045 35.6883 45.6667 35.0734V32.3335ZM37.7612 48.3335H40.3333V45.6668H37.7612C38.3459 41.5792 41.5791 38.346 45.6667 37.7613V40.3335H48.3333V37.7613C52.4209 38.346 55.6541 41.5792 56.2388 45.6668H53.6667V48.3335H56.2388C55.6541 52.4211 52.4209 55.6543 48.3333 56.239V53.6668H45.6667V56.239C41.5791 55.6543 38.3459 52.4211 37.7612 48.3335ZM44.3333 47.0002C44.3333 48.4729 45.5272 49.6668 47 49.6668C48.4728 49.6668 49.6667 48.4729 49.6667 47.0002C49.6667 45.5274 48.4728 44.3335 47 44.3335C45.5272 44.3335 44.3333 45.5274 44.3333 47.0002Z" fill="#03A65A"/>
<defs>
<filter id="filter0_dd" x="0" y="0" width="94" height="94" filterUnits="userSpaceOnUse" color-interpolation-filters="sRGB">
<feFlood flood-opacity="0" result="BackgroundImageFix"/>
<feColorMatrix in="SourceAlpha" type="matrix" values="0 0 0 0 0 0 0 0 0 0 0 0 0 0 0 0 0 0 127 0"/>
<feOffset dx="5" dy="5"/>
<feGaussianBlur stdDeviation="5"/>
<feColorMatrix type="matrix" values="0 0 0 0 0.6512 0 0 0 0 0.66896 0 0 0 0 0.74 0 0 0 1 0"/>
<feBlend mode="normal" in2="BackgroundImageFix" result="effect1_dropShadow"/>
<feColorMatrix in="SourceAlpha" type="matrix" values="0 0 0 0 0 0 0 0 0 0 0 0 0 0 0 0 0 0 127 0"/>
<feOffset dx="-5" dy="-5"/>
<feGaussianBlur stdDeviation="5"/>
<feColorMatrix type="matrix" values="0 0 0 0 0.980392 0 0 0 0 0.980392 0 0 0 0 0.980392 0 0 0 1 0"/>
<feBlend mode="normal" in2="effect1_dropShadow" result="effect2_dropShadow"/>
<feBlend mode="normal" in="SourceGraphic" in2="effect2_dropShadow" result="shape"/>
</filter>
</defs>
</svg>
