<svg width="64" height="64" viewBox="0 0 64 64" fill="none" xmlns="http://www.w3.org/2000/svg">
<path d="M7.05654 5.819C0.919143 11.1895 -0.188999 25.5323 0.0241046 32.0324C-0.189003 39.5981 0.983067 54.4097 8.0155 58.8852C15.0479 63.3606 26.449 63.8934 32.3094 64C38.7025 64 46.0546 64 55.6443 59.2049C62.3571 54.4097 63.6357 45.1391 63.9553 32.0324C64.275 18.9257 62.9964 9.9748 56.2836 4.85999C50.9443 0.791695 37.9566 -0.148276 32.3094 0.064834C26.449 -0.254842 13.1939 0.448445 7.05654 5.819Z" fill="white"/>
<path d="M27.0492 49.1333C24.2633 48.3978 22.0146 47.5903 20.4277 46.9004C15.6828 44.8343 14.4593 43.2211 14.0012 42.5382C13.6466 42.0098 13.0322 41.0742 12.7987 39.7243C12.5301 38.1813 12.9198 37.0192 13.8871 34.372C15.2598 30.6119 16.1515 28.3545 16.1515 28.3545C18.0158 23.6307 18.2616 22.9759 19.1533 21.9981C19.5325 21.5821 20.7735 20.2901 22.8028 19.3896C24.8426 18.4855 26.6928 18.4171 27.4424 18.396C28.8958 18.3556 29.3013 18.5944 31.2305 18.5048C32.6085 18.4416 32.993 18.2907 33.9392 18.2152C34.5465 18.166 37.3008 17.9431 39.7355 19.1298C41.2399 19.8635 42.2826 21.2047 44.3681 23.8869C44.8333 24.4873 45.8514 25.8302 46.9836 27.6874C48.244 29.7535 48.955 31.3194 49.8432 33.2907C51.3195 36.5716 51.3125 37.207 51.2739 37.6055C51.1229 39.1643 50.1802 40.2421 48.9093 41.6605C48.0597 42.6067 46.9433 43.6459 44.5506 45.2117C43.6993 45.7699 42.6671 46.4071 41.4576 47.076C39.4898 48.1643 37.3025 48.7927 35.0609 48.942C32.0714 49.1403 27.9146 49.3633 27.0492 49.1333Z" fill="#03A65A" stroke="#0D0D0D" stroke-width="0.601697" stroke-miterlimit="10" stroke-linecap="round"/>
<path d="M28.3438 37.0381C28.5939 37.0381 28.7967 36.8354 28.7967 36.5852C28.7967 36.3351 28.5939 36.1323 28.3438 36.1323C28.0936 36.1323 27.8909 36.3351 27.8909 36.5852C27.8909 36.8354 28.0936 37.0381 28.3438 37.0381Z" fill="#141414"/>
<path d="M32.1243 36.8428C32.3745 36.8428 32.5772 36.64 32.5772 36.3899C32.5772 36.1398 32.3745 35.937 32.1243 35.937C31.8742 35.937 31.6714 36.1398 31.6714 36.3899C31.6714 36.64 31.8742 36.8428 32.1243 36.8428Z" fill="#141414"/>
<path d="M30.4125 24.4484C30.5371 22.7913 30.2352 21.6924 30.6495 20.1985C30.8742 19.3893 31.1603 19.0013 31.3341 18.8012C31.7729 18.2957 32.0345 18.3589 32.2013 18.0008C32.4997 17.3618 31.7993 16.4876 31.0128 15.4888C30.2264 14.4899 29.8314 13.9896 29.296 14.0002C28.7168 14.0125 28.3288 14.5742 27.6863 15.5063C27.0263 16.4648 26.1784 17.6602 26.6261 18.4361C26.8771 18.8714 27.2756 18.817 27.7372 19.4384C28.1059 19.937 28.2024 20.446 28.2603 20.7743C28.9555 24.7293 29.3241 27.3448 29.6559 27.3606C29.9087 27.3747 30.3054 25.8755 30.4125 24.4484Z" fill="#83E671" stroke="#161616" stroke-width="0.641318" stroke-miterlimit="10" stroke-linecap="round"/>
<path d="M29.6351 24.0344C29.4262 23.1286 29.2489 22.0701 29.1716 20.8799C29.054 19.1034 29.1909 17.5552 29.3928 16.3281" fill="#04D775"/>
<path d="M29.6354 24.0356C29.416 23.4229 29.2597 22.7875 29.1491 22.1467C29.035 21.5043 28.9771 20.853 28.9508 20.2017C28.935 19.5487 28.9525 18.8957 29.0263 18.248C29.0965 17.6002 29.2106 16.9577 29.3931 16.3311C29.3651 16.9806 29.3335 17.6248 29.3177 18.2673C29.3036 18.9098 29.3019 19.5505 29.3247 20.1895C29.3422 20.8302 29.3844 21.4692 29.437 22.1099C29.4932 22.7488 29.5669 23.3878 29.6354 24.0356Z" fill="#121212"/>
<path d="M39.6814 20.3793C39.6481 20.4337 40.7031 20.9375 42.1144 22.2383C43.438 23.4583 44.242 24.6116 44.8687 25.5226C45.469 26.3951 46.4029 27.7503 47.17 29.618C48.2988 32.3617 49.3011 34.8 48.3742 36.9486C47.5527 38.8532 46.022 38.6637 44.4263 41.5724C44.2438 41.9042 43.0746 44.037 43.6311 44.5338C44.091 44.9463 45.5129 44.0352 46.5714 43.3576C48.0302 42.4238 49.6136 41.3775 50.4807 39.3377C50.6861 38.8532 50.9442 38.2336 50.9863 37.3822C51.0214 36.6818 50.9003 36.0481 49.5082 33.0516C48.8886 31.7175 49.1133 32.2757 47.9196 29.7865C47.5861 29.0896 47.3192 28.5279 46.8681 27.7678C46.4573 27.0727 46.0606 26.4986 45.7762 26.1072C45.3093 25.4612 45.1408 25.3032 44.2332 24.1218C43.7698 23.518 43.6469 23.3407 43.5082 23.1634C42.0705 21.3202 39.7323 20.3003 39.6814 20.3793Z" fill="#04D775"/>
<path d="M13.6868 36.0291C14.1941 36.0045 14.3223 37.8319 15.6055 40.6756C16.7114 43.1244 17.6628 44.0864 17.3732 44.3743C17.0221 44.7271 15.1333 43.7722 14.0045 42.2485C12.7301 40.5282 12.853 38.6552 12.8951 38.2075C12.9653 37.4755 13.2427 36.0519 13.6868 36.0291Z" fill="#04D775"/>
<path d="M26.5609 32.8566C26.5802 33.3043 26.603 33.7993 26.3678 34.3698C25.5146 36.4412 22.2724 37.0679 20.2695 36.9415C19.462 36.8906 19.5655 36.7607 16.8675 36.3587C15.8757 36.2112 15.6791 36.2007 15.4403 36.0094C14.3695 35.1422 14.7926 32.4441 15.909 30.6887C16.0652 30.4429 17.6311 28.0626 20.5468 27.8274C22.2531 27.6904 23.5029 28.3628 23.7504 28.5014C25.2724 29.3528 26.4784 31.0082 26.5609 32.8566Z" fill="#D8EBFD" stroke="#181818" stroke-width="0.601697" stroke-miterlimit="10"/>
<path d="M26.3132 33.4767C26.2307 35.2655 24.4296 36.2345 23.2763 36.4399C22.9428 36.4995 21.5367 36.7488 20.5958 35.6885C19.9094 34.9162 19.8813 33.9086 19.8778 33.7207C19.8585 32.0583 21.2032 30.094 23.0709 30.0923C24.7684 30.0923 26.3939 31.7178 26.3132 33.4767Z" fill="#904D1D" stroke="#181818" stroke-width="0.440532" stroke-miterlimit="10"/>
<path d="M23.6325 36.1188C25.1817 36.0395 26.376 34.772 26.3 33.2877C26.2241 31.8034 24.9067 30.6644 23.3575 30.7437C21.8083 30.8229 20.6141 32.0905 20.69 33.5748C20.7659 35.0591 22.0834 36.1981 23.6325 36.1188Z" fill="#121212"/>
<path d="M25.24 33.1735C25.5534 33.1262 25.7692 32.8337 25.7219 32.5202C25.6745 32.2067 25.382 31.991 25.0686 32.0383C24.7551 32.0857 24.5393 32.3781 24.5867 32.6916C24.634 33.0051 24.9265 33.2208 25.24 33.1735Z" fill="white"/>
<path d="M18.8228 31.8478C18.714 32.7062 19.5969 33.2978 20.099 33.6348C20.3921 33.8314 20.7222 34.0456 21.154 33.9877C21.1891 33.9824 21.7578 33.8999 21.979 33.4646C22.2178 32.9959 21.8895 32.4394 21.5244 31.8215C21.0767 31.0632 20.8064 30.6085 20.3114 30.5506C19.6531 30.4733 18.9123 31.1369 18.8228 31.8478Z" fill="white"/>
<path d="M27.0316 33.8613C26.3558 34.7601 25.4763 35.522 24.4722 36.0661C23.4734 36.6086 22.357 36.9807 21.1949 37.0158C20.6121 37.0246 20.0451 36.9386 19.4921 36.8508C18.9374 36.7578 18.3862 36.677 17.8315 36.605C17.2768 36.5366 16.7203 36.4751 16.1621 36.4348C15.6039 36.3926 15.0439 36.3628 14.4822 36.3101C15.0439 36.2838 15.6056 36.2803 16.1709 36.2627C16.7344 36.2627 17.2979 36.2856 17.8613 36.3312C18.4248 36.3716 18.9848 36.4471 19.5413 36.5208C20.0977 36.598 20.6454 36.6788 21.1879 36.663C22.2762 36.6366 23.354 36.2996 24.3476 35.8204C25.3412 35.3376 26.2522 34.6723 27.0316 33.8613Z" fill="#161616"/>
<path d="M35.8376 32.95C35.8254 33.094 35.8271 33.1888 35.8271 33.3766C35.8289 33.8084 35.8289 34.0243 35.8236 34.1437C35.7938 34.8336 35.5269 35.2215 35.6235 35.2777C35.6779 35.3093 35.7692 35.1882 36.0957 34.9249C36.1887 34.8511 36.4152 34.6931 36.8698 34.3772C37.3315 34.0577 37.3807 34.0314 37.4052 34.0507C37.5386 34.1595 36.5714 35.4129 36.7259 35.5515C36.8224 35.6393 37.2666 35.1952 37.9319 34.7651C38.5656 34.3544 39.2747 34.1104 40.6703 33.6364C42.0852 33.1554 42.3415 33.1589 43.0629 32.7692C44.0196 32.2514 44.3497 31.8248 44.5252 31.4491C44.5779 31.3368 44.9482 30.5381 44.5989 30.1063C44.3672 29.8201 43.9143 29.8149 43.3227 29.8096C42.9365 29.8061 42.775 29.8605 42.1431 29.8535C41.8833 29.85 41.4989 29.8465 41.4936 29.792C41.4866 29.7148 42.2414 29.5919 42.2396 29.5796C42.2379 29.5691 41.4989 29.627 40.6334 29.9149C39.9102 30.1554 39.4152 30.4503 39.0185 30.6908C38.1653 31.2069 37.2788 31.7441 36.6469 32.7201C36.4889 32.9641 36.3081 33.2958 36.2326 33.2678C36.1501 33.2344 36.2414 32.7675 36.3625 32.4041C36.4801 32.0513 36.6609 31.6967 37.2051 30.9892C37.6861 30.3643 37.9266 30.0518 38.2461 29.7692C39.1238 28.9933 39.9839 28.7914 39.9576 28.7195C39.933 28.6528 39.1712 28.7721 38.4216 29.1917C37.5808 29.6621 37.091 30.3239 36.9295 30.5451C36.8347 30.6768 36.7118 30.8821 36.4661 31.2929C36.0904 31.9249 35.9974 32.139 35.9342 32.3778C35.864 32.6481 35.8412 32.9167 35.8376 32.95Z" fill="#04D775"/>
<path d="M37.2157 35.5584C37.2105 35.4724 37.6388 35.4092 38.7394 35.1494C39.5803 34.951 39.6172 34.9194 40.1561 34.8088C40.8617 34.6631 41.7693 34.4753 41.8167 34.614C41.8536 34.7211 41.3603 34.9896 41.0671 35.1248C40.7459 35.2723 40.5458 35.3144 39.3117 35.5461C38.692 35.6637 38.3743 35.7217 37.9478 35.7023C37.9144 35.7006 37.2228 35.6672 37.2157 35.5584Z" fill="#04D775"/>
<path d="M35.6072 35.6251C35.6072 35.6251 36.004 34.6438 36.2918 34.2032C36.6886 33.5958 37.547 32.3143 39.2146 31.3629C41.4791 30.0709 43.633 30.3009 44.6722 30.4115C44.9039 30.436 46.8524 30.6432 46.8945 31.1382C46.9121 31.3366 46.6154 31.5121 46.5786 31.5332C45.9782 31.886 42.2497 31.1839 40.6558 31.6262C37.468 32.5109 35.6072 35.6251 35.6072 35.6251Z" fill="#141414"/>
<path d="M36.8408 35.5001C37.3674 35.063 37.9414 34.6874 38.5418 34.3591C38.8402 34.1906 39.1509 34.0449 39.4616 33.9009C39.7741 33.7605 40.0953 33.6376 40.4148 33.5165C41.0625 33.2883 41.7226 33.1022 42.3966 32.9776C43.069 32.8494 43.7518 32.774 44.4347 32.7775C43.7711 32.939 43.1146 33.0969 42.4669 33.2795C41.8191 33.4621 41.1784 33.6622 40.5482 33.8904C39.9162 34.1133 39.2931 34.3661 38.6769 34.6364C38.0625 34.9085 37.4552 35.2034 36.8408 35.5001Z" fill="#141414"/>
<path d="M37.434 35.7214C37.8254 35.6318 38.2116 35.5651 38.5943 35.4932C38.977 35.4194 39.3579 35.3492 39.7371 35.2685C40.1162 35.193 40.4936 35.1052 40.8746 35.0227C41.2555 34.9367 41.6364 34.8472 42.0314 34.7734C41.6996 34.9999 41.338 35.1754 40.9659 35.3194C40.5937 35.4668 40.2075 35.5739 39.8178 35.6582C39.4264 35.7354 39.0279 35.7898 38.6294 35.8021C38.2309 35.8162 37.8289 35.7986 37.434 35.7214Z" fill="#141414"/>
<path d="M35.8212 34.1439C36.0072 33.4277 36.346 32.7466 36.7919 32.1445C37.2395 31.5389 37.7978 31.0193 38.4209 30.5962C39.0476 30.1767 39.7445 29.8607 40.4713 29.6764C41.198 29.4885 41.9528 29.4253 42.6883 29.5061C41.9546 29.5904 41.2419 29.7396 40.5608 29.9748C40.222 30.0959 39.8885 30.2276 39.569 30.3908C39.2477 30.5488 38.937 30.7261 38.6421 30.928C38.047 31.3229 37.5064 31.8022 37.0324 32.3393C36.562 32.88 36.1617 33.4874 35.8212 34.1439Z" fill="#141414"/>
<path d="M35.5829 33.1487C35.6584 32.1341 36.0165 31.1089 36.6783 30.2874C37.0048 29.8749 37.4068 29.5291 37.8368 29.2254C38.2757 28.9357 38.7532 28.7111 39.2447 28.5302C40.24 28.2055 41.2932 28.0756 42.3254 28.1616C43.3576 28.2388 44.3705 28.4864 45.3079 28.8901C44.3178 28.6426 43.3137 28.4899 42.3114 28.4723C42.1868 28.4653 42.0604 28.4706 41.9357 28.4758L41.5618 28.4864L41.1897 28.5197L41.0036 28.5373L40.8193 28.5671L40.4506 28.6233L40.0873 28.704L39.9065 28.7444L39.7292 28.7988C39.6116 28.8357 39.4922 28.869 39.3746 28.9077C38.9076 29.0709 38.46 29.2816 38.0422 29.5414C37.6297 29.8082 37.2488 30.1242 36.9152 30.4893C36.2517 31.2213 35.8234 32.1587 35.5829 33.1487Z" fill="#141414"/>
<path d="M27.9481 26.0371C27.8498 26.0774 27.6426 25.0224 26.6578 24.3624C25.9715 23.9025 25.2219 23.8445 24.927 23.8217C24.7023 23.8042 24.0984 23.7778 23.398 23.992C23.1066 24.0815 22.8697 24.1904 22.4378 24.3922C22.1201 24.5397 21.8094 24.7012 21.3161 24.8943C21.1739 24.9505 20.8544 25.0733 20.8421 25.0488C20.8281 25.0189 21.2371 24.8276 21.7953 24.4818C22.3711 24.1254 22.3676 24.0605 22.6906 23.8797C23.2945 23.5409 23.8562 23.4584 24.1669 23.4145C24.5654 23.3583 25.2166 23.2758 25.9873 23.5251C26.2558 23.6128 26.7263 23.7638 27.1493 24.1693C27.92 24.9083 28.0464 25.9967 27.9481 26.0371Z" fill="#04D775"/>
<path d="M27.6149 28.572C27.5552 28.5913 27.4235 28.1103 27.0847 27.6171C26.6073 26.9237 25.9771 26.5814 25.6909 26.4286C24.8062 25.9599 24.0022 25.9424 23.4984 25.9301C22.6242 25.909 21.9694 26.0969 21.8062 26.146C21.413 26.2636 21.3884 26.3286 20.6985 26.5919C19.9806 26.8657 19.0976 27.1536 19.0765 27.101C19.0642 27.0711 19.3732 26.9412 19.8875 26.6709C20.8407 26.1671 20.9215 26.0038 21.4692 25.7388C22.2328 25.3684 22.9419 25.2666 23.3316 25.2367C23.7529 25.2034 24.492 25.1525 25.3451 25.486C25.6312 25.5983 26.193 25.8248 26.7056 26.3795C27.1971 26.9114 27.3831 27.4608 27.4586 27.6925C27.5938 28.1068 27.671 28.5545 27.6149 28.572Z" fill="#04D775"/>
<path d="M27.6921 28.8862C27.6833 27.8207 27.2252 26.7815 26.4159 26.1513C26.0139 25.8371 25.5417 25.6194 25.0449 25.4965C24.7992 25.4368 24.5376 25.3859 24.2848 25.3596C24.0303 25.3332 23.774 25.3262 23.5195 25.342C23.0069 25.3701 22.5013 25.4895 22.0133 25.665C21.7693 25.751 21.5218 25.8511 21.2884 25.9599C21.0531 26.0705 20.8232 26.1934 20.5932 26.3233C20.1368 26.5901 19.6593 26.8534 19.159 27.05C18.908 27.1483 18.6552 27.2344 18.3989 27.3098C18.1409 27.3801 17.8828 27.4468 17.623 27.51C17.8706 27.4099 18.1181 27.3134 18.3673 27.2221C18.6131 27.122 18.8536 27.0132 19.0888 26.8921C19.5645 26.6603 20.0016 26.376 20.4528 26.0863C20.9004 25.7897 21.3954 25.5474 21.8992 25.3508C22.4083 25.156 22.949 25.0261 23.5002 24.9892C24.0549 24.9593 24.6043 25.0296 25.1345 25.1735C25.6628 25.3227 26.1772 25.5702 26.595 25.9389C27.0128 26.304 27.334 26.7744 27.5166 27.2888C27.6903 27.8066 27.7571 28.3561 27.6921 28.8862Z" fill="#0D0D0D"/>
<path d="M27.9639 25.5909C27.8357 25.1801 27.6409 24.7974 27.3705 24.4814C27.1037 24.1637 26.7614 23.9197 26.3857 23.7723C26.0066 23.6283 25.5976 23.5809 25.1727 23.5599C24.7602 23.537 24.3442 23.5581 23.9369 23.6388C23.5279 23.7091 23.1277 23.8302 22.7468 23.9917C22.3658 24.1514 22.013 24.3709 21.6602 24.6096C21.3108 24.8501 20.9334 25.0976 20.5156 25.2415C20.0978 25.3802 19.6625 25.4434 19.2324 25.4294C19.6572 25.3662 20.0715 25.2573 20.4507 25.0818C20.8316 24.908 21.1599 24.6517 21.4987 24.3884C21.8357 24.1198 22.2096 23.8776 22.6116 23.688C23.0153 23.5072 23.4384 23.3755 23.8737 23.2948C24.3091 23.2175 24.755 23.1947 25.1956 23.2316C25.6239 23.272 26.0768 23.3299 26.4893 23.523C26.9018 23.7108 27.2529 24.0145 27.5039 24.3796C27.755 24.7448 27.9112 25.1643 27.9639 25.5909Z" fill="#0D0D0D"/>
<path d="M34.8982 29.7231C35.0474 30.0725 35.5986 31.0766 35.423 30.7378C35.423 30.7378 34.9965 29.5125 35.1878 28.3188C35.3493 27.3182 36.0111 26.6424 36.292 26.3879C36.313 26.3685 36.3394 26.344 36.3762 26.3141C37.2048 25.619 38.2475 25.6242 38.725 25.633C39.3025 25.6436 39.7975 25.784 40.7647 26.0649C42.0567 26.4405 42.9538 26.8179 42.9678 26.7811C42.9783 26.753 42.4675 26.5529 41.7495 26.1561C40.9456 25.712 40.8911 25.5804 40.4821 25.375C39.4271 24.8466 38.3317 25.0046 37.9631 25.059C37.5541 25.1204 36.543 25.2855 35.6846 26.1105C35.4616 26.3247 35.0123 26.7635 34.7823 27.4903C34.7665 27.5429 34.4365 28.6418 34.8982 29.7231Z" fill="#04D775"/>
<path d="M33.7693 25.557C33.8185 26.0379 33.9817 26.4838 34.0467 26.4733C34.1274 26.461 33.9238 25.7887 34.1924 24.9794C34.2626 24.7653 34.4223 24.3036 34.8612 23.9314C35.1894 23.6523 35.523 23.554 35.7828 23.4821C36.3638 23.3188 36.908 23.3258 37.5575 23.4189C38.9495 23.619 39.8202 24.0684 39.8378 24.0245C39.8588 23.9753 38.7354 23.4452 37.4013 23.0256C36.8378 22.8483 36.4077 22.7448 35.8705 22.7957C35.5949 22.822 35.1403 22.8729 34.6927 23.1959C34.2503 23.5154 34.0607 23.9244 33.9677 24.1316C33.6921 24.7459 33.743 25.2954 33.7693 25.557Z" fill="#04D775"/>
<path d="M34.8433 29.7946C34.5993 29.2873 34.4852 28.7151 34.5027 28.141C34.5256 27.5653 34.7116 26.9912 35.0452 26.5085C35.3734 26.0205 35.8526 25.6466 36.3687 25.385C36.4969 25.3166 36.6303 25.2604 36.7637 25.206C36.8936 25.1533 37.0323 25.0989 37.1727 25.0568C37.4518 24.9743 37.7344 24.9128 38.0223 24.876C38.5964 24.8075 39.1844 24.8286 39.7514 24.962C40.034 25.034 40.3096 25.1252 40.5747 25.2499C40.8415 25.371 41.0855 25.5378 41.3102 25.7063C41.5349 25.8748 41.7579 26.0275 41.9966 26.1627C42.2353 26.2961 42.4881 26.4084 42.7462 26.5067C43.2622 26.7121 43.8064 26.8368 44.3629 26.9193C43.8012 26.9175 43.2377 26.8245 42.6917 26.67C42.4196 26.5892 42.1511 26.4909 41.8913 26.3681C41.6315 26.2452 41.3857 26.0872 41.154 25.9327C40.264 25.292 39.1388 25.0884 38.0662 25.227C37.7976 25.2586 37.5308 25.3131 37.271 25.3868C37.02 25.4623 36.7567 25.5711 36.5162 25.6835C36.0282 25.9117 35.5911 26.2434 35.2663 26.67C34.6063 27.5231 34.4869 28.7344 34.8433 29.7946Z" fill="#0D0D0D"/>
<path d="M33.7994 25.6823C33.6695 25.3294 33.6273 24.9397 33.6782 24.5535C33.7326 24.1691 33.8906 23.7899 34.1469 23.4845C34.3997 23.1738 34.7473 22.9491 35.1142 22.8034C35.4723 22.6612 35.89 22.5857 36.2868 22.6226C36.6817 22.6594 37.0504 22.7595 37.412 22.856C37.7701 22.9561 38.1422 23.0632 38.4916 23.2071C39.1972 23.4845 39.8573 23.8426 40.5033 24.227C39.7958 23.9742 39.106 23.6863 38.4003 23.4652C38.0457 23.3546 37.6964 23.2615 37.3295 23.179C36.9679 23.093 36.6098 23 36.2587 22.9736C35.9076 22.9368 35.5706 22.9947 35.23 23.1158C34.8965 23.2282 34.5946 23.416 34.3506 23.667C34.1101 23.9198 33.9345 24.2393 33.845 24.5886C33.7537 24.9362 33.7449 25.3119 33.7994 25.6823Z" fill="#0D0D0D"/>
<path d="M18.6671 40.8647C18.5969 40.7014 18.4442 40.7172 17.7385 40.4487C17.319 40.2889 17.0293 40.152 16.6396 39.9677C16.2131 39.7658 15.9024 39.592 15.065 39.19C15.065 39.19 14.6788 39.0039 14.089 38.9881C13.989 38.9846 13.8485 38.9882 13.7783 39.0777C13.6993 39.1812 13.752 39.3498 13.7976 39.4656C14.1505 40.3433 15.0615 41.2649 15.0615 41.2649C15.5653 41.7722 15.9129 42.0601 16.6115 42.6341C17.0715 43.0133 17.3787 43.2433 17.5963 43.1415C17.7543 43.0677 17.7613 42.8694 17.8456 42.5727C18.144 41.5159 18.8251 41.2316 18.6671 40.8647Z" fill="#0D0D0D"/>
<path d="M42.4937 39.7199C42.5481 39.4391 42.9132 39.353 43.5346 39.0739C43.8945 38.9124 44.2842 38.6877 45.0653 38.2366C45.6306 37.9101 45.9115 37.7486 46.18 37.5678C46.2239 37.5379 46.6698 37.2378 47.2965 36.9551C47.5756 36.8288 47.7599 36.7656 47.8845 36.8516C48.0583 36.9709 48.0109 37.3115 48.0039 37.3642C47.9758 37.5643 47.8898 37.6749 47.6142 38.0874C47.3351 38.5052 47.4141 38.4069 47.2877 38.5859C47.1525 38.7773 46.812 39.2477 46.2257 39.899C45.7851 40.387 45.369 40.7977 45.0109 41.1278C44.8371 41.2875 44.9091 41.2155 43.3573 42.4724C43.0484 42.7217 42.7236 42.9867 42.6394 42.9165C42.5639 42.8533 42.771 42.5918 42.8553 42.0722C42.9027 41.786 42.8886 41.5666 42.8728 41.3314C42.8588 41.1067 42.8307 40.7152 42.6692 40.2501C42.5446 39.8849 42.4673 39.8551 42.4937 39.7199Z" fill="#0D0D0D"/>
<path d="M18.9459 40.868C18.5948 40.8873 18.3614 41.277 18.0665 41.7826C17.7207 42.3776 17.4135 42.9078 17.6259 43.3045C17.675 43.394 17.8014 43.4923 18.0524 43.6907C18.3315 43.9101 18.5685 44.0523 18.6861 44.1208C19.1215 44.3771 19.3918 44.4894 19.8465 44.7088C20.417 44.9862 20.438 45.0248 20.8927 45.2477C21.6528 45.6216 22.2724 45.8463 22.6709 45.9903C23.3468 46.2325 23.8348 46.3659 24.8143 46.6205C26.0115 46.9329 26.6101 47.0892 27.2684 47.1805C28.0162 47.2823 28.5744 47.2928 29.1818 47.3051C30.3473 47.3279 31.304 47.2507 31.9342 47.1822C33.1314 47.0523 34.0302 46.8522 34.3392 46.782C34.5287 46.7381 35.417 46.531 36.565 46.1307C37.6341 45.7586 38.4363 45.3899 38.7962 45.2197C39.9354 44.6807 40.757 44.1717 41.2994 43.8329C41.819 43.5081 42.2491 43.2167 42.5703 42.9903C42.6984 42.6866 42.8529 42.2144 42.8705 41.6228C42.8986 40.6977 42.5808 39.9955 42.4018 39.6655C42.3438 39.7006 42.2561 39.7498 42.149 39.8077C41.7839 40.0043 41.4942 40.1184 41.3889 40.1606C40.9184 40.3519 40.7499 40.4642 40.2321 40.7012C39.6826 40.9522 39.2648 41.0997 38.4521 41.3841C37.4638 41.7316 36.8213 41.9563 35.9015 42.2003C35.6469 42.2671 34.7341 42.504 33.5018 42.7112C33.0998 42.7796 32.5293 42.8744 31.7727 42.9482C30.4316 43.0798 29.3696 43.0587 28.8693 43.0412C28.0425 43.0113 27.4316 42.9376 26.2081 42.7884C24.9424 42.6339 24.2859 42.5075 24.0998 42.4707C23.6364 42.3794 23.0852 42.2688 22.3743 42.0582C21.7142 41.8633 21.8178 41.8475 20.754 41.5122C19.8096 41.2138 19.7376 41.2278 19.4339 41.0611C19.2145 40.9417 19.1162 40.8575 18.9459 40.868Z" fill="white"/>
<path d="M13.6644 38.9904C14.2401 37.9372 21.2741 43.6879 31.3853 42.9348C41.1331 42.2098 47.2963 35.9202 48.002 36.8997C48.5936 37.7195 44.5754 42.5574 38.9827 45.2133C37.4994 45.9173 32.765 48.087 26.7475 47.1355C18.8692 45.8892 13.1237 39.9787 13.6644 38.9904Z" stroke="#0D0D0D" stroke-width="0.641318" stroke-miterlimit="10" stroke-linecap="round"/>
<path d="M36.5503 44.3945C35.4496 44.7439 34.3226 45.0195 33.1799 45.2161C32.0353 45.4074 30.8926 45.5549 29.7305 45.6321C28.5719 45.6988 27.3993 45.6742 26.2495 45.5004C25.6737 45.4162 25.1032 45.3021 24.5432 45.1546C23.985 45.0001 23.4303 44.8299 22.8949 44.6122C24.0113 44.9071 25.1453 45.1107 26.2828 45.2284C27.4221 45.3442 28.5666 45.3547 29.7094 45.281C30.2817 45.2494 30.8522 45.195 31.4245 45.1353C31.9985 45.0791 32.569 45.0142 33.1395 44.944C34.2788 44.7965 35.4163 44.6122 36.5503 44.3945Z" fill="#121212"/>
</svg>
