<svg width="94" height="94" viewBox="0 0 94 94" fill="none" xmlns="http://www.w3.org/2000/svg">
<g filter="url(#filter0_dd)">
<path d="M22.0565 20.819C15.9191 26.1895 14.811 40.5323 15.0241 47.0324C14.811 54.5981 15.9831 69.4097 23.0155 73.8852C30.0479 78.3606 41.449 78.8934 47.3094 79C53.7025 79 61.0546 79 70.6443 74.2049C77.3571 69.4097 78.6357 60.1391 78.9553 47.0324C79.275 33.9257 77.9964 24.9748 71.2836 19.86C65.9443 15.7917 52.9566 14.8517 47.3094 15.0648C41.449 14.7452 28.1939 15.4484 22.0565 20.819Z" fill="white"/>
</g>
<mask id="path-2-outside-1" maskUnits="userSpaceOnUse" x="32" y="32" width="30" height="30" fill="black">
<rect fill="white" x="32" y="32" width="30" height="30"/>
<path d="M60.4569 45.4452L57.0583 42.0467C57.7798 41.8696 58.4654 41.5047 59.0284 40.9413C59.8518 40.1184 60.2653 39.0354 60.265 37.957C60.2654 36.8786 59.8518 35.7954 59.0288 34.9728C58.2058 34.1491 57.1226 33.7359 56.0442 33.7363C54.9654 33.7359 53.8825 34.1495 53.0599 34.9728C52.4965 35.5354 52.1316 36.221 51.9542 36.9422L48.5563 33.5443C48.1932 33.1815 47.713 32.9996 47.2383 33C46.7633 32.9996 46.2825 33.1816 45.9199 33.5443L40.9221 38.5432C40.7198 38.7455 40.7198 39.0727 40.9221 39.275L41.5207 39.874C41.6432 39.9965 41.8179 40.0497 41.9881 40.0158C42.15 39.9837 42.3143 39.9675 42.479 39.9675C43.1231 39.9682 43.7621 40.2116 44.255 40.7031C44.7459 41.1943 44.9892 41.8333 44.99 42.4774C44.9893 43.1226 44.7459 43.763 44.2544 44.2548C43.7628 44.746 43.1231 44.9898 42.4783 44.9901C41.8338 44.9897 41.1938 44.746 40.7026 44.2548C40.2107 43.7626 39.9673 43.1236 39.967 42.4791C39.9666 42.3141 39.9828 42.1501 40.0152 41.9893C40.049 41.8195 39.9956 41.6438 39.8737 41.5215L39.2745 40.9226C39.0722 40.7206 38.7445 40.7206 38.5422 40.923L33.5441 45.9213C33.1812 46.2838 32.9993 46.7643 33 47.2393C32.9993 47.714 33.1812 48.1949 33.5443 48.5573L36.9421 51.9551C36.2207 52.1326 35.5354 52.4974 34.9721 53.0612C34.1491 53.8834 33.7355 54.9666 33.7363 56.0451C33.7355 57.1232 34.1487 58.2067 34.9724 59.0298C35.7954 59.8531 36.8786 60.2663 37.9574 60.2656C39.0355 60.2662 40.1183 59.8523 40.9407 59.0294C41.504 58.4661 41.8692 57.7804 42.0463 57.0593L45.4441 60.4575C45.8073 60.8203 46.2875 61.0022 46.7625 61.0018C47.2375 61.0022 47.7177 60.8202 48.0801 60.4577L53.0784 55.4595C53.2803 55.2573 53.2803 54.9296 53.0784 54.7273L52.4798 54.1284C52.3576 54.0062 52.1829 53.9531 52.0127 53.9865C51.8508 54.019 51.6861 54.0348 51.5211 54.0348C50.8766 54.0342 50.2373 53.7911 49.7457 53.2999C49.2542 52.808 49.0108 52.1686 49.0105 51.5238C49.0109 50.8794 49.2546 50.2394 49.7457 49.7474C50.2373 49.2562 50.877 49.0128 51.5222 49.0121C52.1667 49.0128 52.8064 49.2566 53.2983 49.7477C53.7895 50.2396 54.0329 50.879 54.0332 51.5235C54.0336 51.6877 54.017 51.8525 53.9849 52.0157C53.9517 52.1855 54.0046 52.3589 54.1271 52.4814L54.7257 53.0803C54.8217 53.1766 54.9553 53.2318 55.092 53.2318C55.2283 53.2318 55.3615 53.1767 55.4582 53.0803L60.4567 48.0814C60.82 47.7186 61.0015 47.2381 61.0008 46.7634C61.0013 46.2882 60.8194 45.8077 60.4569 45.4452ZM59.7243 47.3494L55.0924 51.9811L55.043 51.9317C55.0585 51.796 55.0692 51.6597 55.0692 51.5226C55.0696 50.6168 54.7219 49.7061 54.0305 49.0147C53.339 48.3233 52.428 47.9753 51.5222 47.9757C50.616 47.9753 49.7051 48.323 49.0136 49.0144C48.3219 49.7062 47.9742 50.6172 47.9746 51.5234C47.9742 52.4292 48.3219 53.3402 49.0136 54.0316C49.7048 54.7231 50.6157 55.0707 51.5212 55.07C51.658 55.07 51.7943 55.06 51.9306 55.0441L51.98 55.0935L47.348 59.7252C47.1872 59.886 46.9777 59.9654 46.7626 59.9661C46.5471 59.9654 46.3376 59.8861 46.1764 59.7252L42.0204 55.5689C41.871 55.4194 41.6473 55.3756 41.4526 55.4581C41.2583 55.5399 41.1336 55.7312 41.1364 55.9421C41.1371 55.9822 41.1377 56.0173 41.1377 56.0466C41.1371 56.864 40.8301 57.6746 40.2081 58.2973C39.585 58.9201 38.7734 59.2298 37.9574 59.23C37.14 59.2297 36.3277 58.9208 35.7045 58.2976C35.0811 57.6742 34.7725 56.8622 34.7718 56.0455C34.7725 55.2288 35.0819 54.4168 35.7043 53.7941C36.327 53.1714 37.1372 52.8652 37.955 52.8645C37.9871 52.8645 38.0196 52.8651 38.0516 52.8662C38.2639 52.8724 38.4583 52.7489 38.5425 52.5538C38.6267 52.3587 38.5833 52.1326 38.4334 51.9825L34.2768 47.8262C34.116 47.665 34.0366 47.4555 34.0359 47.2404C34.0365 47.025 34.1159 46.8155 34.2764 46.6546L38.9087 42.0227L38.9577 42.0717C38.9422 42.208 38.9315 42.3444 38.9315 42.481C38.9311 43.3868 39.2791 44.2975 39.9705 44.9889C40.6616 45.6804 41.5726 46.0283 42.4788 46.0277C43.3849 46.0283 44.2959 45.6804 44.987 44.9889C45.6791 44.2968 46.0267 43.3851 46.026 42.4789C46.0267 41.5731 45.6784 40.6632 44.9877 39.9724C44.2955 39.2806 43.3849 38.9327 42.4794 38.9334C42.3427 38.9334 42.2063 38.9437 42.0701 38.9596L42.0207 38.9103L46.653 34.278C46.8138 34.1175 47.0233 34.0377 47.2388 34.037C47.4535 34.0377 47.6633 34.1171 47.8246 34.2783L51.9808 38.4346C52.1313 38.5851 52.3605 38.6282 52.5549 38.5426C52.7496 38.4574 52.8732 38.2599 52.8646 38.0473C52.8632 38.0193 52.8625 37.9889 52.8625 37.9562C52.8636 37.1391 53.1701 36.3286 53.7922 35.7058C54.4153 35.083 55.2272 34.7734 56.0439 34.7731C56.8604 34.7735 57.6726 35.0824 58.2957 35.7058C58.9187 36.3292 59.2281 37.1408 59.2284 37.9575C59.228 38.774 58.9187 39.5862 58.2957 40.2093C57.6726 40.8314 56.8624 41.1376 56.045 41.1382C56.0125 41.1382 55.9804 41.1378 55.9487 41.1368C55.7363 41.1307 55.542 41.2542 55.4578 41.4493C55.3735 41.6444 55.4167 41.8705 55.5669 42.0206L59.7234 46.1772C59.8843 46.338 59.964 46.5475 59.9647 46.763C59.965 46.9787 59.8852 47.1882 59.7243 47.3494Z"/>
</mask>
<path d="M60.4569 45.4452L57.0583 42.0467C57.7798 41.8696 58.4654 41.5047 59.0284 40.9413C59.8518 40.1184 60.2653 39.0354 60.265 37.957C60.2654 36.8786 59.8518 35.7954 59.0288 34.9728C58.2058 34.1491 57.1226 33.7359 56.0442 33.7363C54.9654 33.7359 53.8825 34.1495 53.0599 34.9728C52.4965 35.5354 52.1316 36.221 51.9542 36.9422L48.5563 33.5443C48.1932 33.1815 47.713 32.9996 47.2383 33C46.7633 32.9996 46.2825 33.1816 45.9199 33.5443L40.9221 38.5432C40.7198 38.7455 40.7198 39.0727 40.9221 39.275L41.5207 39.874C41.6432 39.9965 41.8179 40.0497 41.9881 40.0158C42.15 39.9837 42.3143 39.9675 42.479 39.9675C43.1231 39.9682 43.7621 40.2116 44.255 40.7031C44.7459 41.1943 44.9892 41.8333 44.99 42.4774C44.9893 43.1226 44.7459 43.763 44.2544 44.2548C43.7628 44.746 43.1231 44.9898 42.4783 44.9901C41.8338 44.9897 41.1938 44.746 40.7026 44.2548C40.2107 43.7626 39.9673 43.1236 39.967 42.4791C39.9666 42.3141 39.9828 42.1501 40.0152 41.9893C40.049 41.8195 39.9956 41.6438 39.8737 41.5215L39.2745 40.9226C39.0722 40.7206 38.7445 40.7206 38.5422 40.923L33.5441 45.9213C33.1812 46.2838 32.9993 46.7643 33 47.2393C32.9993 47.714 33.1812 48.1949 33.5443 48.5573L36.9421 51.9551C36.2207 52.1326 35.5354 52.4974 34.9721 53.0612C34.1491 53.8834 33.7355 54.9666 33.7363 56.0451C33.7355 57.1232 34.1487 58.2067 34.9724 59.0298C35.7954 59.8531 36.8786 60.2663 37.9574 60.2656C39.0355 60.2662 40.1183 59.8523 40.9407 59.0294C41.504 58.4661 41.8692 57.7804 42.0463 57.0593L45.4441 60.4575C45.8073 60.8203 46.2875 61.0022 46.7625 61.0018C47.2375 61.0022 47.7177 60.8202 48.0801 60.4577L53.0784 55.4595C53.2803 55.2573 53.2803 54.9296 53.0784 54.7273L52.4798 54.1284C52.3576 54.0062 52.1829 53.9531 52.0127 53.9865C51.8508 54.019 51.6861 54.0348 51.5211 54.0348C50.8766 54.0342 50.2373 53.7911 49.7457 53.2999C49.2542 52.808 49.0108 52.1686 49.0105 51.5238C49.0109 50.8794 49.2546 50.2394 49.7457 49.7474C50.2373 49.2562 50.877 49.0128 51.5222 49.0121C52.1667 49.0128 52.8064 49.2566 53.2983 49.7477C53.7895 50.2396 54.0329 50.879 54.0332 51.5235C54.0336 51.6877 54.017 51.8525 53.9849 52.0157C53.9517 52.1855 54.0046 52.3589 54.1271 52.4814L54.7257 53.0803C54.8217 53.1766 54.9553 53.2318 55.092 53.2318C55.2283 53.2318 55.3615 53.1767 55.4582 53.0803L60.4567 48.0814C60.82 47.7186 61.0015 47.2381 61.0008 46.7634C61.0013 46.2882 60.8194 45.8077 60.4569 45.4452ZM59.7243 47.3494L55.0924 51.9811L55.043 51.9317C55.0585 51.796 55.0692 51.6597 55.0692 51.5226C55.0696 50.6168 54.7219 49.7061 54.0305 49.0147C53.339 48.3233 52.428 47.9753 51.5222 47.9757C50.616 47.9753 49.7051 48.323 49.0136 49.0144C48.3219 49.7062 47.9742 50.6172 47.9746 51.5234C47.9742 52.4292 48.3219 53.3402 49.0136 54.0316C49.7048 54.7231 50.6157 55.0707 51.5212 55.07C51.658 55.07 51.7943 55.06 51.9306 55.0441L51.98 55.0935L47.348 59.7252C47.1872 59.886 46.9777 59.9654 46.7626 59.9661C46.5471 59.9654 46.3376 59.8861 46.1764 59.7252L42.0204 55.5689C41.871 55.4194 41.6473 55.3756 41.4526 55.4581C41.2583 55.5399 41.1336 55.7312 41.1364 55.9421C41.1371 55.9822 41.1377 56.0173 41.1377 56.0466C41.1371 56.864 40.8301 57.6746 40.2081 58.2973C39.585 58.9201 38.7734 59.2298 37.9574 59.23C37.14 59.2297 36.3277 58.9208 35.7045 58.2976C35.0811 57.6742 34.7725 56.8622 34.7718 56.0455C34.7725 55.2288 35.0819 54.4168 35.7043 53.7941C36.327 53.1714 37.1372 52.8652 37.955 52.8645C37.9871 52.8645 38.0196 52.8651 38.0516 52.8662C38.2639 52.8724 38.4583 52.7489 38.5425 52.5538C38.6267 52.3587 38.5833 52.1326 38.4334 51.9825L34.2768 47.8262C34.116 47.665 34.0366 47.4555 34.0359 47.2404C34.0365 47.025 34.1159 46.8155 34.2764 46.6546L38.9087 42.0227L38.9577 42.0717C38.9422 42.208 38.9315 42.3444 38.9315 42.481C38.9311 43.3868 39.2791 44.2975 39.9705 44.9889C40.6616 45.6804 41.5726 46.0283 42.4788 46.0277C43.3849 46.0283 44.2959 45.6804 44.987 44.9889C45.6791 44.2968 46.0267 43.3851 46.026 42.4789C46.0267 41.5731 45.6784 40.6632 44.9877 39.9724C44.2955 39.2806 43.3849 38.9327 42.4794 38.9334C42.3427 38.9334 42.2063 38.9437 42.0701 38.9596L42.0207 38.9103L46.653 34.278C46.8138 34.1175 47.0233 34.0377 47.2388 34.037C47.4535 34.0377 47.6633 34.1171 47.8246 34.2783L51.9808 38.4346C52.1313 38.5851 52.3605 38.6282 52.5549 38.5426C52.7496 38.4574 52.8732 38.2599 52.8646 38.0473C52.8632 38.0193 52.8625 37.9889 52.8625 37.9562C52.8636 37.1391 53.1701 36.3286 53.7922 35.7058C54.4153 35.083 55.2272 34.7734 56.0439 34.7731C56.8604 34.7735 57.6726 35.0824 58.2957 35.7058C58.9187 36.3292 59.2281 37.1408 59.2284 37.9575C59.228 38.774 58.9187 39.5862 58.2957 40.2093C57.6726 40.8314 56.8624 41.1376 56.045 41.1382C56.0125 41.1382 55.9804 41.1378 55.9487 41.1368C55.7363 41.1307 55.542 41.2542 55.4578 41.4493C55.3735 41.6444 55.4167 41.8705 55.5669 42.0206L59.7234 46.1772C59.8843 46.338 59.964 46.5475 59.9647 46.763C59.965 46.9787 59.8852 47.1882 59.7243 47.3494Z" fill="#03A65A"/>
<path d="M60.4569 45.4452L57.0583 42.0467C57.7798 41.8696 58.4654 41.5047 59.0284 40.9413C59.8518 40.1184 60.2653 39.0354 60.265 37.957C60.2654 36.8786 59.8518 35.7954 59.0288 34.9728C58.2058 34.1491 57.1226 33.7359 56.0442 33.7363C54.9654 33.7359 53.8825 34.1495 53.0599 34.9728C52.4965 35.5354 52.1316 36.221 51.9542 36.9422L48.5563 33.5443C48.1932 33.1815 47.713 32.9996 47.2383 33C46.7633 32.9996 46.2825 33.1816 45.9199 33.5443L40.9221 38.5432C40.7198 38.7455 40.7198 39.0727 40.9221 39.275L41.5207 39.874C41.6432 39.9965 41.8179 40.0497 41.9881 40.0158C42.15 39.9837 42.3143 39.9675 42.479 39.9675C43.1231 39.9682 43.7621 40.2116 44.255 40.7031C44.7459 41.1943 44.9892 41.8333 44.99 42.4774C44.9893 43.1226 44.7459 43.763 44.2544 44.2548C43.7628 44.746 43.1231 44.9898 42.4783 44.9901C41.8338 44.9897 41.1938 44.746 40.7026 44.2548C40.2107 43.7626 39.9673 43.1236 39.967 42.4791C39.9666 42.3141 39.9828 42.1501 40.0152 41.9893C40.049 41.8195 39.9956 41.6438 39.8737 41.5215L39.2745 40.9226C39.0722 40.7206 38.7445 40.7206 38.5422 40.923L33.5441 45.9213C33.1812 46.2838 32.9993 46.7643 33 47.2393C32.9993 47.714 33.1812 48.1949 33.5443 48.5573L36.9421 51.9551C36.2207 52.1326 35.5354 52.4974 34.9721 53.0612C34.1491 53.8834 33.7355 54.9666 33.7363 56.0451C33.7355 57.1232 34.1487 58.2067 34.9724 59.0298C35.7954 59.8531 36.8786 60.2663 37.9574 60.2656C39.0355 60.2662 40.1183 59.8523 40.9407 59.0294C41.504 58.4661 41.8692 57.7804 42.0463 57.0593L45.4441 60.4575C45.8073 60.8203 46.2875 61.0022 46.7625 61.0018C47.2375 61.0022 47.7177 60.8202 48.0801 60.4577L53.0784 55.4595C53.2803 55.2573 53.2803 54.9296 53.0784 54.7273L52.4798 54.1284C52.3576 54.0062 52.1829 53.9531 52.0127 53.9865C51.8508 54.019 51.6861 54.0348 51.5211 54.0348C50.8766 54.0342 50.2373 53.7911 49.7457 53.2999C49.2542 52.808 49.0108 52.1686 49.0105 51.5238C49.0109 50.8794 49.2546 50.2394 49.7457 49.7474C50.2373 49.2562 50.877 49.0128 51.5222 49.0121C52.1667 49.0128 52.8064 49.2566 53.2983 49.7477C53.7895 50.2396 54.0329 50.879 54.0332 51.5235C54.0336 51.6877 54.017 51.8525 53.9849 52.0157C53.9517 52.1855 54.0046 52.3589 54.1271 52.4814L54.7257 53.0803C54.8217 53.1766 54.9553 53.2318 55.092 53.2318C55.2283 53.2318 55.3615 53.1767 55.4582 53.0803L60.4567 48.0814C60.82 47.7186 61.0015 47.2381 61.0008 46.7634C61.0013 46.2882 60.8194 45.8077 60.4569 45.4452ZM59.7243 47.3494L55.0924 51.9811L55.043 51.9317C55.0585 51.796 55.0692 51.6597 55.0692 51.5226C55.0696 50.6168 54.7219 49.7061 54.0305 49.0147C53.339 48.3233 52.428 47.9753 51.5222 47.9757C50.616 47.9753 49.7051 48.323 49.0136 49.0144C48.3219 49.7062 47.9742 50.6172 47.9746 51.5234C47.9742 52.4292 48.3219 53.3402 49.0136 54.0316C49.7048 54.7231 50.6157 55.0707 51.5212 55.07C51.658 55.07 51.7943 55.06 51.9306 55.0441L51.98 55.0935L47.348 59.7252C47.1872 59.886 46.9777 59.9654 46.7626 59.9661C46.5471 59.9654 46.3376 59.8861 46.1764 59.7252L42.0204 55.5689C41.871 55.4194 41.6473 55.3756 41.4526 55.4581C41.2583 55.5399 41.1336 55.7312 41.1364 55.9421C41.1371 55.9822 41.1377 56.0173 41.1377 56.0466C41.1371 56.864 40.8301 57.6746 40.2081 58.2973C39.585 58.9201 38.7734 59.2298 37.9574 59.23C37.14 59.2297 36.3277 58.9208 35.7045 58.2976C35.0811 57.6742 34.7725 56.8622 34.7718 56.0455C34.7725 55.2288 35.0819 54.4168 35.7043 53.7941C36.327 53.1714 37.1372 52.8652 37.955 52.8645C37.9871 52.8645 38.0196 52.8651 38.0516 52.8662C38.2639 52.8724 38.4583 52.7489 38.5425 52.5538C38.6267 52.3587 38.5833 52.1326 38.4334 51.9825L34.2768 47.8262C34.116 47.665 34.0366 47.4555 34.0359 47.2404C34.0365 47.025 34.1159 46.8155 34.2764 46.6546L38.9087 42.0227L38.9577 42.0717C38.9422 42.208 38.9315 42.3444 38.9315 42.481C38.9311 43.3868 39.2791 44.2975 39.9705 44.9889C40.6616 45.6804 41.5726 46.0283 42.4788 46.0277C43.3849 46.0283 44.2959 45.6804 44.987 44.9889C45.6791 44.2968 46.0267 43.3851 46.026 42.4789C46.0267 41.5731 45.6784 40.6632 44.9877 39.9724C44.2955 39.2806 43.3849 38.9327 42.4794 38.9334C42.3427 38.9334 42.2063 38.9437 42.0701 38.9596L42.0207 38.9103L46.653 34.278C46.8138 34.1175 47.0233 34.0377 47.2388 34.037C47.4535 34.0377 47.6633 34.1171 47.8246 34.2783L51.9808 38.4346C52.1313 38.5851 52.3605 38.6282 52.5549 38.5426C52.7496 38.4574 52.8732 38.2599 52.8646 38.0473C52.8632 38.0193 52.8625 37.9889 52.8625 37.9562C52.8636 37.1391 53.1701 36.3286 53.7922 35.7058C54.4153 35.083 55.2272 34.7734 56.0439 34.7731C56.8604 34.7735 57.6726 35.0824 58.2957 35.7058C58.9187 36.3292 59.2281 37.1408 59.2284 37.9575C59.228 38.774 58.9187 39.5862 58.2957 40.2093C57.6726 40.8314 56.8624 41.1376 56.045 41.1382C56.0125 41.1382 55.9804 41.1378 55.9487 41.1368C55.7363 41.1307 55.542 41.2542 55.4578 41.4493C55.3735 41.6444 55.4167 41.8705 55.5669 42.0206L59.7234 46.1772C59.8843 46.338 59.964 46.5475 59.9647 46.763C59.965 46.9787 59.8852 47.1882 59.7243 47.3494Z" stroke="#03A65A" stroke-width="1.4" mask="url(#path-2-outside-1)"/>
<defs>
<filter id="filter0_dd" x="0" y="0" width="94" height="94" filterUnits="userSpaceOnUse" color-interpolation-filters="sRGB">
<feFlood flood-opacity="0" result="BackgroundImageFix"/>
<feColorMatrix in="SourceAlpha" type="matrix" values="0 0 0 0 0 0 0 0 0 0 0 0 0 0 0 0 0 0 127 0"/>
<feOffset dx="5" dy="5"/>
<feGaussianBlur stdDeviation="5"/>
<feColorMatrix type="matrix" values="0 0 0 0 0.6512 0 0 0 0 0.66896 0 0 0 0 0.74 0 0 0 1 0"/>
<feBlend mode="normal" in2="BackgroundImageFix" result="effect1_dropShadow"/>
<feColorMatrix in="SourceAlpha" type="matrix" values="0 0 0 0 0 0 0 0 0 0 0 0 0 0 0 0 0 0 127 0"/>
<feOffset dx="-5" dy="-5"/>
<feGaussianBlur stdDeviation="5"/>
<feColorMatrix type="matrix" values="0 0 0 0 0.980392 0 0 0 0 0.980392 0 0 0 0 0.980392 0 0 0 1 0"/>
<feBlend mode="normal" in2="effect1_dropShadow" result="effect2_dropShadow"/>
<feBlend mode="normal" in="SourceGraphic" in2="effect2_dropShadow" result="shape"/>
</filter>
</defs>
</svg>
