<svg width="64" height="64" viewBox="0 0 64 64" fill="none" xmlns="http://www.w3.org/2000/svg">
<path d="M7.05654 5.819C0.919143 11.1895 -0.188999 25.5323 0.0241046 32.0324C-0.189003 39.5981 0.983067 54.4097 8.0155 58.8852C15.0479 63.3606 26.449 63.8934 32.3094 64C38.7025 64 46.0546 64 55.6443 59.2049C62.3571 54.4097 63.6357 45.1391 63.9553 32.0324C64.275 18.9257 62.9964 9.9748 56.2836 4.85999C50.9443 0.791695 37.9566 -0.148276 32.3094 0.064834C26.449 -0.254842 13.1939 0.448445 7.05654 5.819Z" fill="white"/>
<path fill-rule="evenodd" clip-rule="evenodd" d="M32 46.6668C23.8998 46.6668 17.3333 40.1003 17.3333 32.0002C17.3333 23.9 23.8998 17.3335 32 17.3335C40.1002 17.3335 46.6667 23.9 46.6667 32.0002C46.6667 40.1003 40.1002 46.6668 32 46.6668ZM41.8658 38.8332C43.2114 36.8941 44 34.5392 44 32.0002C44 25.3727 38.6274 20.0002 32 20.0002C25.3726 20.0002 20 25.3727 20 32.0002C20 34.539 20.7885 36.8937 22.1339 38.8328C23.6345 36.8509 27.1607 36.0002 31.9997 36.0002C36.8391 36.0002 40.3653 36.851 41.8658 38.8332ZM39.9527 40.9867C39.5626 39.5834 36.7591 38.6668 31.9997 38.6668C27.2408 38.6668 24.4373 39.5832 24.0468 40.9863C26.1642 42.8616 28.9491 44.0002 32 44.0002C35.0506 44.0002 37.8354 42.8618 39.9527 40.9867ZM32 24.0002C28.7721 24.0002 26.6667 26.3412 26.6667 29.3335C26.6667 33.9033 29.0145 36.0002 32 36.0002C34.9575 36.0002 37.3333 33.973 37.3333 29.6002C37.3333 26.5623 35.2189 24.0002 32 24.0002ZM29.3333 29.3335C29.3333 32.3592 30.4243 33.3335 32 33.3335C33.5703 33.3335 34.6667 32.398 34.6667 29.6002C34.6667 27.9341 33.6209 26.6668 32 26.6668C30.3117 26.6668 29.3333 27.7546 29.3333 29.3335Z" fill="#03A65A"/>
</svg>
