<svg width="94" height="94" viewBox="0 0 94 94" fill="none" xmlns="http://www.w3.org/2000/svg">
<g filter="url(#filter0_dd)">
<path d="M22.0565 20.819C15.9191 26.1895 14.811 40.5323 15.0241 47.0324C14.811 54.5981 15.9831 69.4097 23.0155 73.8852C30.0479 78.3606 41.449 78.8934 47.3094 79C53.7025 79 61.0546 79 70.6443 74.2049C77.3571 69.4097 78.6357 60.1391 78.9553 47.0324C79.275 33.9257 77.9964 24.9748 71.2836 19.86C65.9443 15.7917 52.9566 14.8517 47.3094 15.0648C41.449 14.7452 28.1939 15.4484 22.0565 20.819Z" fill="white"/>
</g>
<path fill-rule="evenodd" clip-rule="evenodd" d="M47 61.6668C38.8998 61.6668 32.3333 55.1003 32.3333 47.0002C32.3333 38.9 38.8998 32.3335 47 32.3335C55.1002 32.3335 61.6667 38.9 61.6667 47.0002C61.6667 55.1003 55.1002 61.6668 47 61.6668ZM56.8658 53.8332C58.2114 51.8941 59 49.5392 59 47.0002C59 40.3727 53.6274 35.0002 47 35.0002C40.3726 35.0002 35 40.3727 35 47.0002C35 49.539 35.7885 51.8937 37.1339 53.8328C38.6345 51.8509 42.1607 51.0002 46.9997 51.0002C51.8391 51.0002 55.3653 51.851 56.8658 53.8332ZM54.9527 55.9867C54.5626 54.5834 51.7591 53.6668 46.9997 53.6668C42.2408 53.6668 39.4373 54.5832 39.0468 55.9863C41.1642 57.8616 43.9491 59.0002 47 59.0002C50.0506 59.0002 52.8354 57.8618 54.9527 55.9867ZM47 39.0002C43.7721 39.0002 41.6667 41.3412 41.6667 44.3335C41.6667 48.9033 44.0145 51.0002 47 51.0002C49.9575 51.0002 52.3333 48.973 52.3333 44.6002C52.3333 41.5623 50.2189 39.0002 47 39.0002ZM44.3333 44.3335C44.3333 47.3592 45.4243 48.3335 47 48.3335C48.5703 48.3335 49.6667 47.398 49.6667 44.6002C49.6667 42.9341 48.6209 41.6668 47 41.6668C45.3117 41.6668 44.3333 42.7546 44.3333 44.3335Z" fill="#03A65A"/>
<defs>
<filter id="filter0_dd" x="0" y="0" width="94" height="94" filterUnits="userSpaceOnUse" color-interpolation-filters="sRGB">
<feFlood flood-opacity="0" result="BackgroundImageFix"/>
<feColorMatrix in="SourceAlpha" type="matrix" values="0 0 0 0 0 0 0 0 0 0 0 0 0 0 0 0 0 0 127 0"/>
<feOffset dx="5" dy="5"/>
<feGaussianBlur stdDeviation="5"/>
<feColorMatrix type="matrix" values="0 0 0 0 0.6512 0 0 0 0 0.66896 0 0 0 0 0.74 0 0 0 1 0"/>
<feBlend mode="normal" in2="BackgroundImageFix" result="effect1_dropShadow"/>
<feColorMatrix in="SourceAlpha" type="matrix" values="0 0 0 0 0 0 0 0 0 0 0 0 0 0 0 0 0 0 127 0"/>
<feOffset dx="-5" dy="-5"/>
<feGaussianBlur stdDeviation="5"/>
<feColorMatrix type="matrix" values="0 0 0 0 0.980392 0 0 0 0 0.980392 0 0 0 0 0.980392 0 0 0 1 0"/>
<feBlend mode="normal" in2="effect1_dropShadow" result="effect2_dropShadow"/>
<feBlend mode="normal" in="SourceGraphic" in2="effect2_dropShadow" result="shape"/>
</filter>
</defs>
</svg>
