<svg width="185" height="30" viewBox="0 0 185 30" fill="none" xmlns="http://www.w3.org/2000/svg">
<path d="M88.3975 1.79246V17.0275H86.4759V1.79246H81.1797V0.0166016H93.6468V1.79246H88.3975Z" fill="#232624"/>
<path d="M100.21 4.68896C101.522 4.68896 102.647 5.0161 103.585 5.62363C104.522 6.27789 105.225 7.11909 105.694 8.24068C105.881 8.70802 106.022 9.26881 106.069 9.87634C106.116 10.4839 106.069 10.9979 105.928 11.3718H95.8044C95.8044 12.6336 96.2263 13.6617 97.0699 14.4095C97.9135 15.1572 99.0384 15.5311 100.398 15.5778C101.944 15.5778 103.35 15.1572 104.616 14.2693L105.553 15.3441C103.96 16.5592 102.272 17.2134 100.398 17.2134C98.5228 17.2134 96.9762 16.6059 95.8044 15.4843C94.6327 14.316 94.0234 12.8205 94.0234 10.9979C94.0234 9.22208 94.5859 7.72662 95.7576 6.55829C96.8824 5.2965 98.3822 4.68896 100.21 4.68896ZM100.21 6.32462C98.9915 6.32462 98.0073 6.69849 97.2105 7.44622C96.4137 8.19395 95.9919 9.08188 95.8982 10.1567H104.335C104.381 9.73614 104.288 9.26881 104.053 8.75475C103.725 8.00702 103.257 7.39949 102.6 6.97889C101.897 6.55829 101.147 6.32462 100.21 6.32462Z" fill="#232624"/>
<path d="M111.644 0.015625H109.863V17.0265H111.644V0.015625Z" fill="#232624"/>
<path d="M121.577 4.68896C122.89 4.68896 124.014 5.0161 124.952 5.62363C125.889 6.27789 126.592 7.11909 127.061 8.24068C127.248 8.70802 127.389 9.26881 127.436 9.87634C127.483 10.4839 127.436 10.9979 127.295 11.3718H117.172C117.172 12.6336 117.593 13.6617 118.437 14.4095C119.281 15.1572 120.406 15.5311 121.765 15.5778C123.311 15.5778 124.718 15.1572 125.983 14.2693L126.92 15.3441C125.327 16.5592 123.64 17.2134 121.765 17.2134C119.89 17.2134 118.343 16.6059 117.172 15.4843C116 14.316 115.391 12.8205 115.391 10.9979C115.391 9.22208 115.953 7.72662 117.125 6.55829C118.25 5.2965 119.749 4.68896 121.577 4.68896ZM121.577 6.32462C120.359 6.32462 119.374 6.69849 118.578 7.44622C117.781 8.19395 117.359 9.08188 117.265 10.1567H125.702C125.749 9.73614 125.655 9.26881 125.421 8.75475C125.092 8.00702 124.624 7.39949 123.968 6.97889C123.265 6.55829 122.468 6.32462 121.577 6.32462Z" fill="#232624"/>
<path d="M135.359 4.68896H135.64C136.577 4.68896 137.468 4.8759 138.358 5.2965C139.249 5.71709 139.952 6.27789 140.421 6.93216L139.389 7.86682C139.014 7.35275 138.452 6.88542 137.749 6.55829C137.046 6.23116 136.343 6.09096 135.687 6.09096H135.452C134.609 6.09096 133.906 6.27789 133.343 6.60502C132.781 6.93216 132.5 7.44622 132.5 8.00702C132.5 8.52108 132.687 8.89495 133.062 9.22208C133.437 9.50248 134.093 9.73615 135.124 9.82961L136.577 9.96981C137.14 10.0165 137.655 10.11 138.077 10.2502C138.499 10.3904 138.921 10.5773 139.343 10.811C139.764 11.0447 140.092 11.4185 140.327 11.8859C140.561 12.3532 140.655 12.914 140.655 13.5215C140.655 14.5964 140.233 15.4843 139.343 16.1386C138.452 16.7928 137.327 17.12 135.921 17.1667H135.734C134.562 17.1667 133.484 16.933 132.5 16.4657C131.469 15.9984 130.766 15.4376 130.344 14.6899L131.375 13.7085C131.703 14.2693 132.312 14.7366 133.109 15.1105C133.953 15.4843 134.796 15.6713 135.687 15.6713H135.781C136.671 15.6713 137.421 15.4843 137.983 15.1105C138.546 14.7366 138.874 14.2225 138.874 13.5683C138.874 13.0542 138.733 12.5869 138.452 12.3065C138.171 11.9793 137.89 11.7924 137.515 11.6989C137.187 11.6055 136.718 11.512 136.202 11.4653L134.796 11.3251C132.031 11.0447 130.672 9.96981 130.672 8.10048C130.672 7.02562 131.094 6.18443 131.984 5.57689C132.968 5.0161 134.046 4.68896 135.359 4.68896Z" fill="#232624"/>
<path d="M149.937 4.68896C151.249 4.68896 152.374 5.0161 153.311 5.62363C154.249 6.27789 154.952 7.11909 155.42 8.24068C155.608 8.70802 155.748 9.26881 155.795 9.87634C155.842 10.4839 155.795 10.9979 155.655 11.3718H145.531C145.531 12.6336 145.953 13.6617 146.796 14.4095C147.64 15.1572 148.765 15.5311 150.124 15.5778C151.671 15.5778 153.077 15.1572 154.342 14.2693L155.28 15.3441C153.686 16.5592 151.999 17.2134 150.124 17.2134C148.249 17.2134 146.703 16.6059 145.531 15.4843C144.359 14.316 143.75 12.8205 143.75 10.9979C143.75 9.22208 144.312 7.72662 145.484 6.55829C146.609 5.2965 148.109 4.68896 149.937 4.68896ZM149.937 6.32462C148.718 6.32462 147.734 6.69849 146.937 7.44622C146.14 8.19395 145.718 9.08188 145.625 10.1567H154.061C154.108 9.73614 154.014 9.26881 153.78 8.75475C153.452 8.00702 152.983 7.39949 152.327 6.97889C151.671 6.55829 150.874 6.32462 149.937 6.32462Z" fill="#232624"/>
<path d="M165.687 4.68896C167.327 4.68896 168.639 5.20303 169.577 6.23116C170.514 7.25929 170.983 8.66128 170.983 10.4839V17.0265H169.249V10.5306C169.249 9.12861 168.921 8.10048 168.218 7.39949C167.561 6.69849 166.624 6.37136 165.452 6.37136C164.187 6.37136 163.156 6.79196 162.406 7.63315C161.656 8.47435 161.281 9.68941 161.281 11.2316V17.0265H159.5V4.8759H160.765L160.859 7.63315C161.328 6.65176 161.984 5.90403 162.875 5.4367C163.718 4.92263 164.656 4.68896 165.687 4.68896Z" fill="#232624"/>
<path d="M179.656 4.68896H179.937C180.874 4.68896 181.765 4.8759 182.655 5.2965C183.546 5.71709 184.249 6.27789 184.717 6.93216L183.686 7.86682C183.311 7.35275 182.749 6.88542 182.046 6.55829C181.343 6.23116 180.64 6.09096 179.984 6.09096H179.796C178.953 6.09096 178.25 6.27789 177.687 6.60502C177.125 6.93216 176.843 7.44622 176.843 8.00702C176.843 8.52108 177.031 8.89495 177.406 9.22208C177.781 9.50248 178.437 9.73615 179.468 9.82961L180.921 9.96981C181.483 10.0165 181.999 10.11 182.421 10.2502C182.843 10.3904 183.264 10.5773 183.686 10.811C184.108 11.0447 184.436 11.4185 184.671 11.8859C184.905 12.3532 184.999 12.914 184.999 13.5215C184.999 14.5964 184.577 15.4843 183.686 16.1386C182.796 16.7928 181.671 17.12 180.265 17.1667H180.077C178.906 17.1667 177.828 16.933 176.843 16.4657C175.812 15.9984 175.109 15.4376 174.688 14.6899L175.719 13.7085C176.047 14.2693 176.656 14.7366 177.453 15.1105C178.296 15.4843 179.14 15.6713 180.031 15.6713H180.124C181.015 15.6713 181.765 15.4843 182.327 15.1105C182.89 14.7366 183.218 14.2225 183.218 13.5683C183.218 13.0542 183.077 12.5869 182.796 12.3065C182.515 11.9793 182.233 11.7924 181.858 11.6989C181.53 11.6055 181.062 11.512 180.546 11.4653L179.14 11.3251C176.375 11.0447 175.016 9.96981 175.016 8.10048C175.016 7.02562 175.437 6.18443 176.328 5.57689C177.265 5.0161 178.343 4.68896 179.656 4.68896Z" fill="#232624"/>
<path d="M88.7692 29.7848C88.0662 29.7848 87.4569 29.5511 86.9882 29.0838C86.5195 28.6164 86.2852 28.0089 86.2852 27.3079C86.2852 26.6069 86.5195 25.9994 86.9882 25.5321C87.4569 25.0647 88.0662 24.8311 88.7692 24.8311C89.3316 24.8311 89.8472 24.9713 90.269 25.2517V25.9994C89.8472 25.719 89.3316 25.5321 88.8161 25.5321C88.3005 25.5321 87.8787 25.719 87.5506 26.0461C87.2225 26.3732 87.0351 26.7938 87.0351 27.3079C87.0351 27.822 87.2225 28.2426 87.5506 28.5697C87.8787 28.8968 88.3005 29.037 88.7692 29.037C89.2379 29.037 89.6597 28.8968 89.9409 28.6164V26.8873H90.6908V28.9436C90.5033 29.1772 90.2221 29.3642 89.894 29.5044C89.5191 29.6913 89.1441 29.7848 88.7692 29.7848Z" fill="#232624"/>
<path d="M96.6871 29.6921H93.3594V24.9253H94.1093V28.9911H96.6871V29.6921Z" fill="#232624"/>
<path d="M102.789 29.0838C102.32 29.5511 101.757 29.7848 101.054 29.7848C100.351 29.7848 99.7889 29.5511 99.3202 29.0838C98.8515 28.6164 98.6172 28.0089 98.6172 27.3079C98.6172 26.6069 98.8515 25.9994 99.3202 25.5321C99.7889 25.0647 100.351 24.8311 101.054 24.8311C101.757 24.8311 102.32 25.0647 102.789 25.5321C103.257 25.9994 103.492 26.6069 103.492 27.3079C103.492 28.0089 103.257 28.5697 102.789 29.0838ZM99.8358 28.5697C100.164 28.8968 100.539 29.0838 101.007 29.0838C101.476 29.0838 101.898 28.8968 102.179 28.5697C102.507 28.2426 102.648 27.822 102.648 27.3079C102.648 26.7938 102.507 26.3732 102.179 26.0461C101.851 25.719 101.476 25.5321 101.007 25.5321C100.539 25.5321 100.117 25.719 99.8358 26.0461C99.5077 26.3732 99.3671 26.7938 99.3671 27.3079C99.3671 27.822 99.5546 28.2426 99.8358 28.5697Z" fill="#232624"/>
<path d="M108.504 29.6921H106.16V24.9253H108.316C108.738 24.9253 109.113 25.0188 109.347 25.2524C109.582 25.4394 109.722 25.7665 109.722 26.0936C109.722 26.3273 109.675 26.5142 109.535 26.7012C109.394 26.8881 109.253 26.9816 109.066 27.075C109.347 27.1218 109.628 27.262 109.816 27.4956C110.003 27.7293 110.097 28.0097 110.097 28.3368C110.097 28.7574 109.957 29.0845 109.675 29.3182C109.394 29.5519 108.972 29.6921 108.504 29.6921ZM106.91 25.5796V26.7946H108.222C108.457 26.7946 108.691 26.7479 108.832 26.6544C108.972 26.561 109.019 26.374 109.019 26.1871C109.019 26.0002 108.972 25.8132 108.832 25.7198C108.691 25.6263 108.504 25.5796 108.222 25.5796H106.91V25.5796ZM106.91 27.4956V28.9911H108.363C108.644 28.9911 108.879 28.9443 109.066 28.8041C109.253 28.6639 109.3 28.477 109.3 28.2433C109.3 28.0097 109.207 27.8227 109.066 27.6825C108.879 27.5423 108.691 27.4956 108.363 27.4956H106.91V27.4956Z" fill="#232624"/>
<path d="M113.043 29.6914H112.246L114.355 24.8779H115.058L117.167 29.6914H116.371L115.855 28.5231H113.558L113.043 29.6914ZM114.683 25.8126L113.793 27.8221H115.527L114.683 25.8126Z" fill="#232624"/>
<path d="M122.839 29.6921H119.512V24.9253H120.308V28.9911H122.839V29.6921Z" fill="#232624"/>
<path d="M133.203 29.7848C132.453 29.7848 131.89 29.5978 131.422 29.2707V28.4762C131.609 28.6632 131.89 28.8034 132.219 28.8968C132.547 29.037 132.875 29.0838 133.203 29.0838C133.531 29.0838 133.812 29.037 134 28.8968C134.187 28.7566 134.328 28.6164 134.328 28.3828C134.328 28.1958 134.281 28.0556 134.093 27.9622C134.046 27.9154 133.953 27.8687 133.859 27.822C133.718 27.7752 133.484 27.6818 133.203 27.5883L133.109 27.5416C132.828 27.4481 132.64 27.4014 132.5 27.3546C132.359 27.3079 132.219 27.2144 132.031 27.121C131.703 26.934 131.515 26.6069 131.515 26.1396C131.515 25.7657 131.656 25.4386 131.984 25.2049C132.312 24.9713 132.734 24.8311 133.25 24.8311C133.812 24.8311 134.328 24.9713 134.796 25.2049V25.9526C134.328 25.6722 133.812 25.4853 133.297 25.4853C132.968 25.4853 132.734 25.5321 132.547 25.6723C132.359 25.7657 132.312 25.9527 132.312 26.0928C132.312 26.233 132.406 26.3732 132.593 26.5134C132.64 26.5134 132.64 26.5602 132.687 26.5602C132.734 26.5602 132.781 26.6069 132.875 26.6069C132.968 26.6069 132.968 26.6536 133.015 26.6536L133.578 26.7938C133.906 26.8873 134.187 27.0275 134.468 27.1677C134.89 27.4014 135.124 27.7752 135.124 28.2893C135.124 28.7099 134.937 29.0838 134.609 29.3174C134.14 29.6446 133.718 29.7848 133.203 29.7848Z" fill="#232624"/>
<path d="M141.546 29.0838C141.078 29.5511 140.515 29.7848 139.812 29.7848C139.109 29.7848 138.547 29.5511 138.078 29.0838C137.609 28.6164 137.375 28.0089 137.375 27.3079C137.375 26.6069 137.609 25.9994 138.078 25.5321C138.547 25.0647 139.109 24.8311 139.812 24.8311C140.515 24.8311 141.078 25.0647 141.546 25.5321C142.015 25.9994 142.249 26.6069 142.249 27.3079C142.249 28.0089 142.015 28.5697 141.546 29.0838ZM138.641 28.5697C138.969 28.8968 139.344 29.0838 139.812 29.0838C140.281 29.0838 140.703 28.8968 140.984 28.5697C141.312 28.2426 141.453 27.822 141.453 27.3079C141.453 26.7938 141.312 26.3732 140.984 26.0461C140.656 25.719 140.281 25.5321 139.812 25.5321C139.344 25.5321 138.922 25.719 138.641 26.0461C138.312 26.3732 138.172 26.7938 138.172 27.3079C138.172 27.822 138.312 28.2426 138.641 28.5697Z" fill="#232624"/>
<path d="M148.199 29.6921H144.918V24.9253H145.668V28.9911H148.199V29.6921Z" fill="#232624"/>
<path d="M150.59 27.6825V24.9253H151.34V27.7293C151.34 28.1499 151.433 28.5237 151.668 28.7574C151.902 28.9911 152.183 29.1313 152.605 29.1313C153.027 29.1313 153.308 28.9911 153.543 28.7574C153.777 28.5237 153.871 28.1966 153.871 27.7293V24.9253H154.621V27.6825C154.621 28.3368 154.433 28.8509 154.058 29.2247C153.683 29.5986 153.215 29.7855 152.605 29.7855C151.996 29.7855 151.527 29.5986 151.152 29.2247C150.777 28.8509 150.59 28.3368 150.59 27.6825Z" fill="#232624"/>
<path d="M156.961 25.5796V24.9253H160.898V25.5796H159.304V29.6921H158.554V25.5796H156.961Z" fill="#232624"/>
<path d="M164.133 24.9253H163.383V29.6921H164.133V24.9253Z" fill="#232624"/>
<path d="M171.024 29.0838C170.555 29.5511 169.993 29.7848 169.29 29.7848C168.587 29.7848 168.024 29.5511 167.555 29.0838C167.087 28.6164 166.852 28.0089 166.852 27.3079C166.852 26.6069 167.087 25.9994 167.555 25.5321C168.024 25.0647 168.587 24.8311 169.29 24.8311C169.993 24.8311 170.555 25.0647 171.024 25.5321C171.492 25.9994 171.727 26.6069 171.727 27.3079C171.727 28.0089 171.492 28.5697 171.024 29.0838ZM168.071 28.5697C168.399 28.8968 168.774 29.0838 169.243 29.0838C169.711 29.0838 170.133 28.8968 170.414 28.5697C170.743 28.2426 170.883 27.822 170.883 27.3079C170.883 26.7938 170.743 26.3732 170.414 26.0461C170.086 25.719 169.711 25.5321 169.243 25.5321C168.774 25.5321 168.352 25.719 168.071 26.0461C167.743 26.3732 167.602 26.7938 167.602 27.3079C167.602 27.822 167.743 28.2426 168.071 28.5697Z" fill="#232624"/>
<path d="M175.098 29.6921H174.348V24.9253H175.004L177.722 28.3835V24.9253H178.472V29.6921H177.816L175.098 26.2338V29.6921Z" fill="#232624"/>
<path d="M182.788 29.7848C182.039 29.7848 181.476 29.5978 181.007 29.2707V28.4762C181.195 28.6632 181.476 28.8034 181.804 28.8968C182.132 29.037 182.46 29.0838 182.788 29.0838C183.117 29.0838 183.398 29.037 183.585 28.8968C183.773 28.7566 183.913 28.6164 183.913 28.3828C183.913 28.1958 183.866 28.0556 183.679 27.9622C183.632 27.9154 183.538 27.8687 183.445 27.822C183.304 27.7752 183.07 27.6818 182.788 27.5883L182.695 27.5416C182.414 27.4481 182.226 27.4014 182.085 27.3546C181.945 27.3079 181.804 27.2144 181.617 27.121C181.289 26.934 181.101 26.6069 181.101 26.1396C181.101 25.7657 181.242 25.4386 181.57 25.2049C181.898 24.9713 182.32 24.8311 182.835 24.8311C183.398 24.8311 183.913 24.9713 184.382 25.2049V25.9526C183.913 25.6722 183.398 25.4853 182.882 25.4853C182.554 25.4853 182.32 25.5321 182.132 25.6723C181.945 25.7657 181.898 25.9527 181.898 26.0928C181.898 26.233 181.992 26.3732 182.179 26.5134C182.226 26.5134 182.226 26.5602 182.273 26.5602C182.32 26.5602 182.367 26.6069 182.46 26.6069C182.554 26.6069 182.554 26.6536 182.601 26.6536L183.163 26.7938C183.491 26.8873 183.773 27.0275 184.054 27.1677C184.476 27.4014 184.71 27.7752 184.71 28.2893C184.71 28.7099 184.523 29.0838 184.195 29.3174C183.726 29.6446 183.304 29.7848 182.788 29.7848Z" fill="#232624"/>
<path fill-rule="evenodd" clip-rule="evenodd" d="M50.1992 0.717285L50.3862 0.764413C50.3394 0.717285 50.246 0.717285 50.1992 0.717285Z" fill="#03A65A"/>
<path fill-rule="evenodd" clip-rule="evenodd" d="M2.15625 21.0464C2.24997 21.1866 2.39054 21.2801 2.53112 21.4203C2.39054 21.3268 2.24997 21.1866 2.15625 21.0464Z" fill="#03A65A"/>
<path fill-rule="evenodd" clip-rule="evenodd" d="M47.7156 3.89445C55.5427 3.70751 62.3856 4.36178 66.4163 5.53011C62.5262 3.38038 57.1831 1.74472 50.9496 0.810059C47.575 2.16532 46.2158 3.42711 47.7156 3.89445Z" fill="#03A65A"/>
<path fill-rule="evenodd" clip-rule="evenodd" d="M1.36257 20.0643C1.26911 19.9241 1.22237 19.8306 1.12891 19.6904C1.17564 19.8306 1.26911 19.9241 1.36257 20.0643Z" fill="#03A65A"/>
<path fill-rule="evenodd" clip-rule="evenodd" d="M68.9476 7.16627C65.4324 5.43715 56.4805 4.54922 46.4037 5.15675C33.8429 5.90448 24.141 8.70847 24.8441 11.3723C25.5471 13.9426 35.577 15.4848 47.4817 14.924C46.9661 14.9707 46.4506 15.0174 45.935 15.0174C31.6869 15.8586 19.4542 14.1295 18.6574 11.0919C17.8606 8.10094 28.7342 4.92308 42.8886 4.08188C43.7322 3.10049 46.4975 1.69849 50.0595 0.717098C45.7007 0.109567 40.9669 -0.124099 35.952 0.0628335C15.8453 0.763831 -0.277589 8.00747 0.00362345 16.2792C0.0504922 17.3541 0.378574 18.429 0.940999 19.4104C3.61252 22.3545 14.0174 24.2706 26.5782 23.9435C41.4356 23.5229 53.809 20.1114 54.1839 16.2792C54.512 12.6341 43.6385 9.92353 29.5778 10.0637C30.1871 10.017 30.7964 10.017 31.4057 10.017C48.1847 9.54966 61.5892 12.7275 61.1674 17.027C60.7924 20.8124 50.1532 24.2239 36.2801 25.3455C35.3427 26.7007 32.718 28.3831 29.2029 29.8786C31.7338 30.0188 34.3116 30.0188 36.9831 29.972C57.1367 29.271 73.2595 22.0274 72.9783 13.7556C72.9783 11.3255 71.5254 9.08233 68.9476 7.16627Z" fill="#03A65A"/>
<path fill-rule="evenodd" clip-rule="evenodd" d="M1.87791 20.766C1.78445 20.6258 1.69098 20.4856 1.55078 20.3921C1.69098 20.4856 1.78445 20.6258 1.87791 20.766Z" fill="#03A65A"/>
<path fill-rule="evenodd" clip-rule="evenodd" d="M29.019 29.8794C28.5035 29.8323 27.9881 29.8323 27.4727 29.7852C27.9881 29.8323 28.5035 29.8323 29.019 29.8794Z" fill="#03A65A"/>
<path fill-rule="evenodd" clip-rule="evenodd" d="M29.7192 25.673C18.0957 25.9534 8.11265 24.5046 3.33203 22.168C7.83143 26.0936 16.5959 28.8975 27.1882 29.7387C30.3284 27.9161 31.4064 26.3272 29.7192 25.673Z" fill="#03A65A"/>
<path fill-rule="evenodd" clip-rule="evenodd" d="M3.19518 22.0736C3.0546 21.9334 2.91403 21.8399 2.82031 21.6997C2.96089 21.8399 3.0546 21.9801 3.19518 22.0736Z" fill="#03A65A"/>
</svg>
