<svg width="477" height="78" viewBox="0 0 477 78" fill="none" xmlns="http://www.w3.org/2000/svg">
<path d="M227.92 4.62088V43.9029H222.965V4.62088H209.31V0.0419922H241.455V4.62088H227.92Z" fill="white"/>
<path d="M258.376 12.0898C261.759 12.0898 264.66 12.9333 267.077 14.4998C269.493 16.1867 271.306 18.3557 272.515 21.2476C272.998 22.4526 273.361 23.8986 273.481 25.465C273.602 27.0315 273.481 28.3569 273.119 29.3209H247.016C247.016 32.5743 248.104 35.2253 250.279 37.1532C252.454 39.0812 255.354 40.0452 258.859 40.1657C262.847 40.1657 266.472 39.0812 269.735 36.7917L272.152 39.5632C268.043 42.6961 263.693 44.3831 258.859 44.3831C254.025 44.3831 250.037 42.8166 247.016 39.9247C243.995 36.9122 242.424 33.0563 242.424 28.3569C242.424 23.7781 243.874 19.9222 246.895 16.9097C249.795 13.6563 253.663 12.0898 258.376 12.0898ZM258.376 16.3072C255.234 16.3072 252.696 17.2712 250.641 19.1992C248.587 21.1271 247.499 23.4166 247.258 26.188H269.01C269.131 25.1035 268.889 23.8986 268.285 22.5731C267.439 20.6451 266.231 19.0787 264.539 17.9942C262.726 16.9097 260.793 16.3072 258.376 16.3072Z" fill="white"/>
<path d="M287.858 0.0415039H283.267V43.9024H287.858V0.0415039Z" fill="white"/>
<path d="M313.472 12.0898C316.856 12.0898 319.756 12.9333 322.173 14.4998C324.59 16.1867 326.403 18.3557 327.611 21.2476C328.095 22.4526 328.457 23.8986 328.578 25.465C328.699 27.0315 328.578 28.3569 328.216 29.3209H302.113C302.113 32.5743 303.2 35.2253 305.376 37.1532C307.551 39.0812 310.451 40.0452 313.956 40.1657C317.944 40.1657 321.569 39.0812 324.832 36.7917L327.249 39.5632C323.14 42.6961 318.79 44.3831 313.956 44.3831C309.122 44.3831 305.134 42.8166 302.113 39.9247C299.092 36.9122 297.521 33.0563 297.521 28.3569C297.521 23.7781 298.971 19.9222 301.992 16.9097C304.892 13.6563 308.759 12.0898 313.472 12.0898ZM313.472 16.3072C310.33 16.3072 307.792 17.2712 305.738 19.1992C303.684 21.1271 302.596 23.4166 302.354 26.188H324.107C324.228 25.1035 323.986 23.8986 323.382 22.5731C322.536 20.6451 321.327 19.0787 319.635 17.9942C317.823 16.9097 315.768 16.3072 313.472 16.3072Z" fill="white"/>
<path d="M349.002 12.0898H349.727C352.144 12.0898 354.44 12.5718 356.736 13.6563C359.032 14.7408 360.845 16.1867 362.053 17.8737L359.395 20.2836C358.428 18.9582 356.978 17.7532 355.165 16.9097C353.352 16.0662 351.54 15.7048 349.848 15.7048H349.244C347.068 15.7048 345.256 16.1867 343.805 17.0302C342.355 17.8737 341.63 19.1992 341.63 20.6451C341.63 21.9706 342.114 22.9346 343.08 23.7781C344.047 24.501 345.739 25.1035 348.398 25.3445L352.144 25.706C353.594 25.8265 354.923 26.0675 356.011 26.429C357.099 26.7905 358.186 27.2725 359.274 27.875C360.361 28.4774 361.207 29.4414 361.812 30.6464C362.416 31.8514 362.658 33.2973 362.658 34.8638C362.658 37.6352 361.57 39.9247 359.274 41.6116C356.978 43.2986 354.077 44.1421 350.452 44.2626H349.969C346.947 44.2626 344.168 43.6601 341.63 42.4551C338.972 41.2501 337.159 39.8042 336.071 37.8762L338.73 35.3458C339.576 36.7917 341.147 37.9967 343.201 38.9607C345.376 39.9247 347.552 40.4066 349.848 40.4066H350.09C352.386 40.4066 354.319 39.9247 355.769 38.9607C357.219 37.9967 358.065 36.6712 358.065 34.9843C358.065 33.6588 357.703 32.4538 356.978 31.7309C356.253 30.8874 355.528 30.4054 354.561 30.1644C353.715 29.9234 352.506 29.6824 351.177 29.5619L347.552 29.2004C340.422 28.4774 336.917 25.706 336.917 20.8861C336.917 18.1147 338.005 15.9457 340.301 14.3793C342.839 12.9333 345.618 12.0898 349.002 12.0898Z" fill="white"/>
<path d="M386.589 12.0898C389.973 12.0898 392.873 12.9333 395.29 14.4998C397.707 16.1867 399.52 18.3557 400.729 21.2476C401.212 22.4526 401.574 23.8986 401.695 25.465C401.816 27.0315 401.695 28.3569 401.333 29.3209H375.23C375.23 32.5743 376.317 35.2253 378.493 37.1532C380.668 39.0812 383.568 40.0452 387.073 40.1657C391.061 40.1657 394.686 39.0812 397.949 36.7917L400.366 39.5632C396.257 42.6961 391.907 44.3831 387.073 44.3831C382.239 44.3831 378.251 42.8166 375.23 39.9247C372.209 36.9122 370.638 33.0563 370.638 28.3569C370.638 23.7781 372.088 19.9222 375.109 16.9097C378.009 13.6563 381.876 12.0898 386.589 12.0898ZM386.589 16.3072C383.447 16.3072 380.91 17.2712 378.855 19.1992C376.801 21.1271 375.713 23.4166 375.472 26.188H397.224C397.345 25.1035 397.103 23.8986 396.499 22.5731C395.653 20.6451 394.444 19.0787 392.753 17.9942C391.061 16.9097 389.006 16.3072 386.589 16.3072Z" fill="white"/>
<path d="M427.203 12.0898C431.432 12.0898 434.816 13.4153 437.233 16.0662C439.65 18.7172 440.858 22.3321 440.858 27.0315V43.9011H436.387V27.152C436.387 23.5371 435.541 20.8861 433.728 19.0787C432.037 17.2712 429.62 16.4277 426.599 16.4277C423.336 16.4277 420.677 17.5122 418.743 19.6812C416.81 21.8501 415.843 24.983 415.843 28.9594V43.9011H411.251V12.5718H414.514L414.756 19.6812C415.964 17.1507 417.656 15.2228 419.952 14.0178C422.127 12.6923 424.544 12.0898 427.203 12.0898Z" fill="white"/>
<path d="M463.221 12.0898H463.946C466.363 12.0898 468.659 12.5718 470.955 13.6563C473.251 14.7408 475.064 16.1867 476.272 17.8737L473.614 20.2836C472.647 18.9582 471.197 17.7532 469.384 16.9097C467.571 16.0662 465.759 15.7048 464.067 15.7048H463.583C461.408 15.7048 459.595 16.1867 458.145 17.0302C456.695 17.8737 455.97 19.1992 455.97 20.6451C455.97 21.9706 456.453 22.9346 457.42 23.7781C458.387 24.501 460.079 25.1035 462.737 25.3445L466.484 25.706C467.934 25.8265 469.263 26.0675 470.351 26.429C471.438 26.7905 472.526 27.2725 473.614 27.875C474.701 28.4774 475.547 29.4414 476.151 30.6464C476.756 31.8514 476.997 33.2973 476.997 34.8638C476.997 37.6352 475.91 39.9247 473.614 41.6116C471.318 43.2986 468.417 44.1421 464.792 44.2626H464.309C461.287 44.2626 458.508 43.6601 455.97 42.4551C453.311 41.2501 451.499 39.8042 450.411 37.8762L453.07 35.3458C453.916 36.7917 455.487 37.9967 457.541 38.9607C459.716 39.9247 461.892 40.4066 464.188 40.4066H464.429C466.725 40.4066 468.659 39.9247 470.109 38.9607C471.559 37.9967 472.405 36.6712 472.405 34.9843C472.405 33.6588 472.043 32.4538 471.318 31.7309C470.593 30.8874 469.867 30.4054 468.901 30.1644C468.055 29.9234 466.846 29.6824 465.517 29.5619L461.892 29.2004C454.762 28.4774 451.257 25.706 451.257 20.8861C451.257 18.1147 452.345 15.9457 454.641 14.3793C457.058 12.9333 459.837 12.0898 463.221 12.0898Z" fill="white"/>
<path d="M228.882 76.7971C227.07 76.7971 225.499 76.1946 224.29 74.9896C223.082 73.7847 222.478 72.2182 222.478 70.4108C222.478 68.6033 223.082 67.0368 224.29 65.8319C225.499 64.6269 227.07 64.0244 228.882 64.0244C230.333 64.0244 231.662 64.3859 232.75 65.1089V67.0368C231.662 66.3139 230.333 65.8319 229.003 65.8319C227.674 65.8319 226.586 66.3139 225.74 67.1573C224.894 68.0008 224.411 69.0853 224.411 70.4108C224.411 71.7362 224.894 72.8207 225.74 73.6642C226.586 74.5077 227.674 74.8691 228.882 74.8691C230.091 74.8691 231.178 74.5077 231.904 73.7847V69.3263H233.837V74.6282C233.354 75.2306 232.629 75.7126 231.783 76.0741C230.816 76.5561 229.849 76.7971 228.882 76.7971Z" fill="white"/>
<path d="M249.3 76.5568H240.72V64.2661H242.653V74.7494H249.3V76.5568Z" fill="white"/>
<path d="M265.034 74.9896C263.825 76.1946 262.375 76.7971 260.562 76.7971C258.75 76.7971 257.299 76.1946 256.091 74.9896C254.883 73.7847 254.278 72.2182 254.278 70.4108C254.278 68.6033 254.883 67.0368 256.091 65.8319C257.299 64.6269 258.75 64.0244 260.562 64.0244C262.375 64.0244 263.825 64.6269 265.034 65.8319C266.242 67.0368 266.846 68.6033 266.846 70.4108C266.846 72.2182 266.242 73.6642 265.034 74.9896ZM257.42 73.6642C258.266 74.5077 259.233 74.9896 260.442 74.9896C261.65 74.9896 262.738 74.5077 263.463 73.6642C264.309 72.8207 264.671 71.7362 264.671 70.4108C264.671 69.0853 264.309 68.0008 263.463 67.1573C262.617 66.3139 261.65 65.8319 260.442 65.8319C259.233 65.8319 258.145 66.3139 257.42 67.1573C256.574 68.0008 256.212 69.0853 256.212 70.4108C256.212 71.7362 256.695 72.8207 257.42 73.6642Z" fill="white"/>
<path d="M279.77 76.5568H273.728V64.2661H279.286C280.374 64.2661 281.341 64.5071 281.945 65.1096C282.549 65.5916 282.912 66.4351 282.912 67.2785C282.912 67.881 282.791 68.363 282.429 68.845C282.066 69.327 281.703 69.568 281.22 69.809C281.945 69.9295 282.67 70.291 283.154 70.8935C283.637 71.4959 283.879 72.2189 283.879 73.0624C283.879 74.1469 283.516 74.9904 282.791 75.5928C282.066 76.1953 280.978 76.5568 279.77 76.5568ZM275.661 65.9531V69.086H279.045C279.649 69.086 280.253 68.9655 280.616 68.7245C280.978 68.4835 281.099 68.0015 281.099 67.5195C281.099 67.0375 280.978 66.5556 280.616 66.3146C280.253 66.0736 279.77 65.9531 279.045 65.9531H275.661ZM275.661 70.8935V74.7494H279.407C280.132 74.7494 280.737 74.6289 281.22 74.2674C281.703 73.9059 281.824 73.4239 281.824 72.8214C281.824 72.2189 281.583 71.7369 281.22 71.3754C280.737 71.0139 280.253 70.8935 279.407 70.8935H275.661Z" fill="white"/>
<path d="M291.473 76.5552H289.419L294.857 64.144H296.67L302.108 76.5552H300.053L298.724 73.5428H292.803L291.473 76.5552ZM295.703 66.554L293.407 71.7354H297.878L295.703 66.554Z" fill="white"/>
<path d="M316.731 76.5568H308.15V64.2661H310.205V74.7494H316.731V76.5568Z" fill="white"/>
<path d="M343.456 76.7971C341.523 76.7971 340.073 76.3151 338.864 75.4716V73.4232C339.348 73.9052 340.073 74.2667 340.919 74.5077C341.765 74.8691 342.611 74.9896 343.456 74.9896C344.302 74.9896 345.027 74.8691 345.511 74.5077C345.994 74.1462 346.357 73.7847 346.357 73.1822C346.357 72.7002 346.236 72.3387 345.753 72.0977C345.632 71.9772 345.39 71.8567 345.148 71.7362C344.786 71.6157 344.182 71.3747 343.456 71.1337L343.215 71.0132C342.49 70.7722 342.006 70.6517 341.644 70.5313C341.281 70.4108 340.919 70.1698 340.435 69.9288C339.589 69.4468 339.106 68.6033 339.106 67.3983C339.106 66.4344 339.469 65.5909 340.314 64.9884C341.16 64.3859 342.248 64.0244 343.577 64.0244C345.027 64.0244 346.357 64.3859 347.565 64.9884V66.9163C346.357 66.1934 345.027 65.7114 343.698 65.7114C342.852 65.7114 342.248 65.8319 341.765 66.1934C341.281 66.4344 341.16 66.9163 341.16 67.2778C341.16 67.6393 341.402 68.0008 341.885 68.3623C342.006 68.3623 342.006 68.4828 342.127 68.4828C342.248 68.4828 342.369 68.6033 342.611 68.6033C342.852 68.6033 342.852 68.7238 342.973 68.7238L344.423 69.0853C345.269 69.3263 345.994 69.6878 346.719 70.0493C347.807 70.6518 348.411 71.6157 348.411 72.9412C348.411 74.0257 347.928 74.9896 347.082 75.5921C345.873 76.4356 344.786 76.7971 343.456 76.7971Z" fill="white"/>
<path d="M364.963 74.9896C363.755 76.1946 362.305 76.7971 360.492 76.7971C358.679 76.7971 357.229 76.1946 356.021 74.9896C354.812 73.7847 354.208 72.2182 354.208 70.4108C354.208 68.6033 354.812 67.0368 356.021 65.8319C357.229 64.6269 358.679 64.0244 360.492 64.0244C362.305 64.0244 363.755 64.6269 364.963 65.8319C366.172 67.0368 366.776 68.6033 366.776 70.4108C366.776 72.2182 366.172 73.6642 364.963 74.9896ZM357.471 73.6642C358.317 74.5077 359.284 74.9896 360.492 74.9896C361.7 74.9896 362.788 74.5077 363.513 73.6642C364.359 72.8207 364.722 71.7362 364.722 70.4108C364.722 69.0853 364.359 68.0008 363.513 67.1573C362.667 66.3139 361.7 65.8319 360.492 65.8319C359.284 65.8319 358.196 66.3139 357.471 67.1573C356.625 68.0008 356.262 69.0853 356.262 70.4108C356.262 71.7362 356.625 72.8207 357.471 73.6642Z" fill="white"/>
<path d="M382.116 76.5568H373.657V64.2661H375.591V74.7494H382.116V76.5568Z" fill="white"/>
<path d="M388.281 71.3754V64.2661H390.215V71.4959C390.215 72.5804 390.457 73.5444 391.061 74.1469C391.665 74.7494 392.39 75.1109 393.478 75.1109C394.565 75.1109 395.29 74.7494 395.895 74.1469C396.499 73.5444 396.741 72.7009 396.741 71.4959V64.2661H398.674V71.3754C398.674 73.0624 398.191 74.3879 397.224 75.3518C396.257 76.3158 395.049 76.7978 393.478 76.7978C391.907 76.7978 390.698 76.3158 389.731 75.3518C388.765 74.3879 388.281 73.0624 388.281 71.3754Z" fill="white"/>
<path d="M404.712 65.9531V64.2661H414.863V65.9531H410.754V76.5568H408.821V65.9531H404.712Z" fill="white"/>
<path d="M423.2 64.2661H421.267V76.5568H423.2V64.2661Z" fill="white"/>
<path d="M440.968 74.9896C439.76 76.1946 438.31 76.7971 436.497 76.7971C434.684 76.7971 433.234 76.1946 432.026 74.9896C430.817 73.7847 430.213 72.2182 430.213 70.4108C430.213 68.6033 430.817 67.0368 432.026 65.8319C433.234 64.6269 434.684 64.0244 436.497 64.0244C438.31 64.0244 439.76 64.6269 440.968 65.8319C442.177 67.0368 442.781 68.6033 442.781 70.4108C442.781 72.2182 442.177 73.6642 440.968 74.9896ZM433.355 73.6642C434.201 74.5077 435.168 74.9896 436.376 74.9896C437.585 74.9896 438.672 74.5077 439.397 73.6642C440.243 72.8207 440.606 71.7362 440.606 70.4108C440.606 69.0853 440.243 68.0008 439.397 67.1573C438.551 66.3139 437.585 65.8319 436.376 65.8319C435.168 65.8319 434.08 66.3139 433.355 67.1573C432.509 68.0008 432.146 69.0853 432.146 70.4108C432.146 71.7362 432.509 72.8207 433.355 73.6642Z" fill="white"/>
<path d="M451.47 76.5568H449.536V64.2661H451.228L458.237 73.1829V64.2661H460.171V76.5568H458.479L451.47 67.64V76.5568Z" fill="white"/>
<path d="M471.305 76.7971C469.372 76.7971 467.921 76.3151 466.713 75.4716V73.4232C467.196 73.9052 467.921 74.2667 468.767 74.5077C469.613 74.8691 470.459 74.9896 471.305 74.9896C472.151 74.9896 472.876 74.8691 473.359 74.5077C473.843 74.1462 474.205 73.7847 474.205 73.1822C474.205 72.7002 474.085 72.3387 473.601 72.0977C473.48 71.9772 473.239 71.8567 472.997 71.7362C472.634 71.6157 472.03 71.3747 471.305 71.1337L471.063 71.0132C470.338 70.7722 469.855 70.6517 469.492 70.5313C469.13 70.4108 468.767 70.1698 468.284 69.9288C467.438 69.4468 466.955 68.6033 466.955 67.3983C466.955 66.4344 467.317 65.5909 468.163 64.9884C469.009 64.3859 470.097 64.0244 471.426 64.0244C472.876 64.0244 474.205 64.3859 475.414 64.9884V66.9163C474.205 66.1934 472.876 65.7114 471.547 65.7114C470.701 65.7114 470.097 65.8319 469.613 66.1934C469.13 66.4344 469.009 66.9163 469.009 67.2778C469.009 67.6393 469.251 68.0008 469.734 68.3623C469.855 68.3623 469.855 68.4828 469.976 68.4828C470.097 68.4828 470.217 68.6033 470.459 68.6033C470.701 68.6033 470.701 68.7238 470.822 68.7238L472.272 69.0853C473.118 69.3263 473.843 69.6878 474.568 70.0493C475.656 70.6518 476.26 71.6157 476.26 72.9412C476.26 74.0257 475.776 74.9896 474.93 75.5921C473.722 76.4356 472.634 76.7971 471.305 76.7971Z" fill="white"/>
<path fill-rule="evenodd" clip-rule="evenodd" d="M129.434 1.84961L129.916 1.97011C129.795 1.84961 129.554 1.84961 129.434 1.84961Z" fill="#03A65A"/>
<path fill-rule="evenodd" clip-rule="evenodd" d="M5.55859 54.2646C5.80023 54.6261 6.16269 54.8671 6.52515 55.2286C6.16269 54.9876 5.80023 54.6261 5.55859 54.2646Z" fill="#03A65A"/>
<path fill-rule="evenodd" clip-rule="evenodd" d="M123.033 10.0417C143.214 9.55968 160.858 11.2466 171.251 14.2591C161.22 8.7162 147.444 4.49881 131.371 2.08887C122.67 5.58328 119.166 8.8367 123.033 10.0417Z" fill="#03A65A"/>
<path fill-rule="evenodd" clip-rule="evenodd" d="M3.51362 51.734C3.27262 51.3725 3.15213 51.1315 2.91113 50.77C3.03163 51.1315 3.27262 51.3725 3.51362 51.734Z" fill="#03A65A"/>
<path fill-rule="evenodd" clip-rule="evenodd" d="M177.775 18.4776C168.711 14.0192 145.63 11.7297 119.648 13.2962C87.2607 15.2241 62.2454 22.454 64.0581 29.3223C65.8708 35.9496 91.732 39.926 122.427 38.4801C121.098 38.6006 119.768 38.7211 118.439 38.7211C81.7017 40.89 50.1607 36.4316 48.1063 28.5993C46.052 20.8875 74.0884 12.6937 110.584 10.5248C112.759 7.99432 119.889 4.37941 129.074 1.84897C117.835 0.282507 105.629 -0.319978 92.6988 0.16201C40.8555 1.96947 -0.715738 20.6465 0.00934273 41.9745C0.130189 44.7459 0.976117 47.5174 2.42628 50.0478C9.31454 57.6391 36.1425 62.5795 68.5294 61.736C106.838 60.6515 138.741 51.8553 139.708 41.9745C140.554 32.5757 112.518 25.5869 76.2636 25.9484C77.8346 25.8279 79.4057 25.8279 80.9767 25.8279C124.24 24.6229 158.802 32.8167 157.714 43.9024C156.748 53.6627 129.315 62.459 93.5447 65.3509C91.1278 68.8453 84.3604 73.1832 75.2969 77.0391C81.8226 77.4006 88.4692 77.4006 95.3574 77.2801C147.322 75.4727 188.893 56.7956 188.168 35.4676C188.168 29.2018 184.421 23.4179 177.775 18.4776Z" fill="#03A65A"/>
<path fill-rule="evenodd" clip-rule="evenodd" d="M4.84348 53.5431C4.60249 53.1816 4.36149 52.8201 4 52.5791C4.36149 52.8201 4.60249 53.1816 4.84348 53.5431Z" fill="#03A65A"/>
<path fill-rule="evenodd" clip-rule="evenodd" d="M74.823 77.0379C73.494 76.9174 72.165 76.9174 70.8359 76.7969C72.165 76.9174 73.494 76.9174 74.823 77.0379Z" fill="#03A65A"/>
<path fill-rule="evenodd" clip-rule="evenodd" d="M76.6266 66.1955C46.6566 66.9185 20.9162 63.1831 8.58984 57.1582C20.1911 67.28 42.7895 74.5098 70.1008 76.6787C78.1976 71.9793 80.9771 67.8824 76.6266 66.1955Z" fill="#03A65A"/>
<path fill-rule="evenodd" clip-rule="evenodd" d="M8.23707 56.9147C7.87461 56.5532 7.51215 56.3122 7.27051 55.9507C7.63297 56.3122 7.87461 56.6737 8.23707 56.9147Z" fill="#03A65A"/>
</svg>
